<?xml version="1.0" encoding="UTF-8" standalone="no"?>
<!-- Created with Inkscape (http://www.inkscape.org/) -->

<svg
   version="1.1"
   id="svg1"
   width="162.45625"
   height="99.41333"
   viewBox="0 0 162.45625 99.413333"
   xmlns="http://www.w3.org/2000/svg"
   xmlns:svg="http://www.w3.org/2000/svg">
  <defs
     id="defs1" />
  <g
     id="g1"
     transform="translate(-127.936,-130.36)">
    <g
       id="g3">
      <path
         style="font-size:60px;font-family:'方正灵飞经小楷 简';fill:#808080"
         d="m 17.1,-30.42 q 0.9,0 1.14,0.12 0.9,-0.18 1.44,0.6 0.48,0.72 0.3,1.62 0.12,0.42 0,0.96 -0.36,0.96 0.72,1.5 0.84,-0.06 1.92,0.12 0.18,0.12 0.84,0.12 0.54,0.24 1.08,0.42 0.9,0.6 0.18,1.38 -1.92,0.6 -2.28,0.6 -1.62,-0.3 -2.04,-0.18 -0.6,0.24 -0.72,0.96 -0.06,0.3 -0.06,1.32 0.18,0.36 0.96,0.36 0.6,0 0.9,0.18 0.84,0.06 2.64,0.54 0.84,0.24 1.8,0.54 0.18,-0.24 0.3,-0.12 0.12,0.18 0.18,0.36 0.9,0.54 1.02,1.08 0.6,0.84 0,1.74 -0.54,0.3 -0.42,0.84 0.12,0.48 0.12,1.02 0.3,1.26 0.54,2.52 -0.12,0.36 0.24,0.9 0.24,0.36 0.3,0.6 -0.12,0.48 -0.06,1.02 -0.18,0.12 -0.24,0.66 -0.06,0.36 -0.24,0.6 -0.48,0.84 -1.38,0.42 -0.36,-0.06 -1.02,-0.9 -0.72,-0.18 -0.96,-0.9 -0.3,-0.36 -0.3,-0.72 0,-0.42 -0.12,-0.72 -0.18,-1.44 -0.12,-2.76 0,-0.66 0.3,-1.14 0.48,-0.6 0.66,-1.2 -0.48,-0.54 -1.02,-0.72 -0.18,-0.3 -0.84,-0.78 -0.6,-0.48 -0.84,-0.84 -0.96,-0.9 -2.22,-1.38 -0.36,0 -0.36,0.36 0,0.3 -0.06,0.54 -0.06,0.54 0,1.02 -0.18,1.08 -0.12,2.16 0,0.84 0,1.62 0.36,3.9 0.36,4.02 0.06,0.3 0,0.6 -0.06,0.24 0.18,0.54 0.06,1.2 0.12,2.34 0,0.84 0,1.68 0.18,0.84 0.3,1.68 -0.06,1.08 -0.12,2.1 0.24,0.6 0,1.32 Q 19.86,0.84 19.8,1.44 19.74,1.98 19.32,2.4 18.9,2.82 18.6,3.3 18.48,3.42 17.88,3.72 17.16,3.84 16.62,3.3 16.14,2.7 15.66,2.28 15.12,2.16 14.76,2.16 14.1,1.8 13.44,1.74 12.84,1.38 12.18,1.02 q -0.3,-0.24 -0.6,-0.3 -0.06,-0.06 0,-0.18 1.92,-0.24 2.94,-0.78 0.78,-0.54 1.56,-1.08 0.48,-0.42 0.6,-1.2 0.24,-0.72 0.24,-1.74 0.06,-0.96 0.12,-1.98 0,-1.62 -0.06,-3.3 0.12,-2.7 0.06,-5.46 0.12,-0.18 0,-0.36 -0.18,-0.24 -0.36,-0.06 -0.36,-0.06 -0.6,0.18 -0.18,0.24 -0.42,0.48 -0.42,0.18 -0.9,0.9 -0.36,0.48 -0.6,0.72 -1.14,0.96 -2.34,1.86 -0.12,0.12 -0.54,0.36 -0.48,0.24 -0.6,0.6 -0.84,0.54 -1.74,1.08 -0.6,0.3 -1.26,0.54 Q 7.14,-8.34 5.82,-8.58 5.64,-8.7 5.76,-8.82 6.06,-9 6.3,-9.18 q 0.96,-0.54 1.74,-1.44 0.78,-0.84 1.5,-1.74 0.78,-1.2 1.56,-2.4 0.84,-0.96 1.44,-1.98 0.48,-0.54 0.9,-1.08 0.3,-0.78 1.08,-1.38 0.54,-1.08 1.26,-2.1 0.12,-0.3 -0.06,-0.36 -0.18,-0.06 -0.36,0.12 -0.54,0 -1.08,0.42 -0.24,0.18 -0.84,0.78 -1.5,0.96 -3.06,1.38 -1.2,0.66 -1.74,0.06 -0.36,-0.48 -0.72,-0.96 -0.48,-0.18 -0.24,-0.24 0.84,0.18 1.8,-0.3 0.42,-0.18 1.56,-1.02 0.84,-0.36 1.5,-0.96 0.78,-0.36 1.5,-0.72 0.66,-0.54 2.34,-1.02 0.06,-0.12 0.48,-0.24 0.36,-0.12 0.48,-0.36 0.3,-0.3 0.36,-0.72 0.12,-0.54 0.18,-1.08 0.12,-0.48 0,-1.86 -0.18,-0.48 -0.42,-0.96 -0.18,-0.48 -0.66,-0.66 -0.12,-0.12 -0.24,-0.06 -0.24,0.06 -0.24,-0.12 0.42,-0.12 0.78,-0.24 z m 21.96,-0.12 q 0.24,-0.06 0.12,0.18 -0.6,0.84 -0.9,1.8 -0.12,0.84 -0.36,1.62 -0.24,0.48 -0.78,1.98 -0.12,0.36 -0.3,0.78 -0.12,0.42 0.18,0.84 -0.06,0.54 -0.18,1.08 0,0.6 -0.48,1.08 -0.42,0.96 -1.44,0.6 -1.5,-0.72 -1.62,-1.68 -0.42,-0.78 -0.72,-1.62 0.06,-0.3 -0.18,-0.66 -0.18,-0.36 -0.18,-0.54 0.12,-0.24 -0.12,-0.78 -0.18,-0.36 -0.06,-0.6 0.6,-0.3 1.14,-1.32 0.12,-0.36 0.3,-0.3 0.06,0 0.06,0.12 0.24,0.72 0.6,1.38 0.3,0.12 0.84,-0.36 0.36,-0.36 0.6,-0.42 0.72,-0.48 1.74,-1.56 1.2,-1.26 1.74,-1.62 z m 2.58,-1.56 q 1.2,0.12 2.34,0.72 0.78,0.06 2.28,1.32 0,0.18 0.24,0.54 0.3,0.48 0.24,0.84 0.06,0.48 -0.48,1.02 -0.42,0.42 -0.48,0.66 -0.66,0.72 -1.08,1.56 -0.42,0.36 -1.2,1.68 -0.54,0.6 -0.9,1.38 0,0.18 -0.18,0.48 -0.3,0.48 -0.12,0.72 1.08,0.12 2.34,0 0.12,-0.06 0.66,-0.06 1.38,0 1.56,0.06 0.96,-0.06 2.34,0.36 1.02,0.48 1.98,0.9 0.42,-0.06 0.72,0.3 0.3,0.3 0.66,0.6 0.36,0.12 0.54,0.48 0.12,0.36 0.36,0.66 0.48,0.78 0.36,1.2 0.06,0.42 -0.24,1.68 -0.24,0.36 -0.3,0.84 -0.12,0.54 -0.6,0.66 -0.24,-0.12 -0.96,-0.24 -0.66,-0.06 -0.96,-0.3 -0.9,-0.42 -1.5,-1.26 -0.06,-0.3 -0.36,-0.66 -0.3,-0.36 -0.3,-0.6 -0.48,-0.72 -1.14,-1.14 -0.42,-0.12 -0.9,-0.9 -0.48,-0.78 -1.02,-0.84 -0.12,-0.12 -1.5,-0.6 -0.84,-0.12 -1.5,-0.36 -0.24,-0.36 -0.54,-0.3 -0.3,0.06 -0.42,0.42 -0.9,0.84 -1.26,1.92 -0.42,0.78 -0.9,1.5 -0.42,0.36 -0.72,1.02 -0.36,0.78 -0.54,0.96 -0.42,0.66 -0.84,1.26 -0.42,0.36 -1.02,1.44 -0.3,0.42 0.06,0.6 0.42,0.24 0.72,0.42 1.08,0.72 2.34,1.2 2.04,1.44 4.02,1.74 0.54,-0.72 0.42,-1.68 0.06,-0.24 0.06,-0.54 0,-1.68 -0.3,-3.48 -0.12,-0.78 -0.24,-1.56 -0.18,-0.18 -0.12,-0.36 0.12,-0.18 0.36,0.06 0.06,0.3 0.48,0.84 0.42,0.54 0.54,0.84 0.48,0.48 0.96,1.8 0.84,1.08 1.56,2.28 0.42,0.6 0.78,1.2 0.9,0.72 1.02,0.96 0.54,0.3 1.02,0.9 0.12,0.3 0.48,0.48 0.42,0.18 0.24,0.66 -0.12,0.54 -0.6,0.72 -0.42,0.24 -0.84,0.54 -0.36,-0.06 -0.66,0.18 -0.24,0.24 -0.54,0.36 -1.44,-0.12 -2.1,-0.24 -0.18,-0.12 -0.66,-0.12 -0.36,0 -0.54,-0.12 Q 43.8,-4.68 42.84,-4.86 42.06,-5.1 41.28,-5.34 40.92,-5.64 39.84,-6.06 38.7,-6.48 38.22,-7.02 37.02,-7.62 35.94,-8.4 35.58,-8.52 35.1,-9 34.74,-9.42 34.56,-9.48 34.14,-9.78 33.54,-9 q -1.02,0.66 -1.74,1.56 -0.3,0.06 -0.78,0.48 -0.42,0.36 -0.6,0.42 -0.78,0.42 -1.56,0.66 -0.48,0.24 -1.02,0.42 -0.42,-0.18 0.3,-0.54 1.02,-0.54 1.92,-1.5 0.42,-0.3 1.08,-1.08 1.02,-1.2 1.74,-2.46 0.24,-0.36 0,-0.66 -0.24,-0.36 -0.36,-0.66 -0.42,-1.26 -0.84,-1.68 -0.66,-1.5 -1.38,-3 -0.6,-1.56 -1.02,-3 -0.42,-0.6 -0.54,-1.56 -0.3,-1.26 -0.66,-2.58 -0.18,-0.36 -0.12,-0.72 0.06,-0.06 0.3,0.18 0.06,0.24 0.78,1.68 0.42,0.48 1.02,1.92 0.36,1.02 0.72,1.98 0.96,1.56 1.86,3.06 0.6,0.84 1.14,1.62 0.18,0.24 0.48,0.6 0.24,0.36 0.6,0.06 0.54,-1.14 1.14,-2.16 0.78,-1.5 1.56,-3 0.3,-0.84 0.72,-1.56 0.3,-0.96 0.84,-2.1 0.18,-0.24 0.06,-0.72 0.18,-0.06 0.6,-0.66 0.18,-0.6 0.72,-1.92 0.66,-1.56 0.84,-2.46 0.18,-0.78 0.36,-1.56 -0.06,-1.02 -1.08,-1.08 -0.66,-0.06 -1.26,0.3 0,-0.24 0.3,-0.48 0.3,-0.18 0.3,-0.3 0.24,-0.24 0.9,-0.36 0.54,-0.06 0.78,-0.24 z M 21,-38.88 q 0.72,-0.12 1.44,1.14 0.78,1.44 1.98,2.88 0.66,1.44 -0.54,2.64 -0.66,0.6 -1.44,0.3 -0.3,0 -0.72,-0.24 -0.48,-0.3 -0.78,-0.18 -0.24,0.12 -0.72,0.06 -0.6,-0.06 -0.84,0.18 -1.44,0.18 -2.7,0.48 -1.32,0 -2.58,0.48 -1.02,-0.06 -2.1,-0.12 -0.06,-0.06 -0.96,-0.24 0.36,-0.3 0.84,-0.36 1.44,-0.84 2.28,-1.14 1.08,-0.84 2.28,-1.38 0.78,-0.78 1.68,-1.26 0.18,-0.36 0.9,-0.78 0.96,-0.6 0.9,-1.2 0.3,-0.36 0.48,-0.72 0.24,-0.36 0.6,-0.54 z"
         id="text3"
         transform="matrix(1.3333333,0,0,1.3333333,120.32,224.4)"
         aria-label="秘" />
    </g>
    <g
       id="g5"
       transform="translate(-10,12)">
      <path
         style="font-size:30px;font-family:'方正灵飞经小楷 简';fill:#808080"
         d="m 1.32,-19.59 h 0.09 l 0.12,-0.03 q 0.3,-0.09 0.6,-0.21 h 0.09 q 0.06,-0.03 0.42,-0.12 L 3,-20.07 q 0.09,0 0.15,-0.03 l 0.15,-0.06 q 0.12,0 0.3,-0.09 l 0.27,-0.09 q 0.09,0 0.18,-0.03 0.12,-0.06 0.27,-0.06 0.15,0 0.24,-0.09 0.12,-0.06 0.24,0 0.06,0.06 0.06,0.12 l -0.03,0.57 q 0,0.36 -0.03,0.45 v 0.3 q 0,0.15 -0.03,0.27 -0.03,0.09 -0.03,0.3 v 0.27 q 0,0.12 0,0.24 0,0.09 -0.06,0.33 v 0.27 q 0,0.18 0,0.33 v 0.39 q 0,0.27 -0.03,0.33 v 0.51 l -0.06,0.42 q 0,0.21 -0.03,0.39 0,0.12 -0.03,0.24 v 0.24 q 0,0.21 0.03,0.27 0,0.15 -0.03,0.3 0,0.27 -0.03,0.51 0,0.39 -0.03,0.45 l -0.03,0.27 v 0.33 q 0,0.18 -0.03,0.33 v 0.78 q 0,0.21 -0.06,0.39 0,0.12 0.03,0.09 l 0.24,-0.3 q 0.12,-0.12 0.24,-0.24 l 0.18,-0.24 q 0.06,-0.12 0.18,-0.18 l 0.09,-0.09 q 0.09,-0.09 0.18,-0.18 l 0.12,-0.12 0.21,-0.15 0.09,-0.03 0.03,-0.06 0.06,-0.06 q 0.06,0 0.18,-0.12 l 0.12,-0.09 q -0.03,-0.06 0.21,-0.12 0.09,-0.03 0.12,-0.03 0.09,-0.06 0.15,-0.12 l 0.39,-0.15 q 0.15,-0.03 0.27,-0.09 l 0.36,-0.06 q 0.06,-0.03 0.24,-0.03 h 0.24 q 0.06,-0.06 0.12,0.03 0.21,0.03 0.39,0.03 h 0.27 q 0.09,0.12 0.24,0.12 l 0.15,0.06 q 0.12,0.03 0.21,0.06 l 0.12,0.06 0.21,0.12 0.12,0.09 q 0.06,0.12 0.24,0.21 l 0.33,0.36 v 0.09 q 0.15,0.15 0.06,0.15 l 0.12,0.15 0.06,0.18 q 0.03,0.18 0.03,0.33 v 0.15 q 0.03,0.09 0.03,0.15 v 0.45 q 0,0.15 -0.03,0.21 l -0.03,0.09 q 0,0.09 0.03,0.18 l -0.09,0.39 q -0.15,0.75 -0.21,0.75 -0.06,0.21 -0.12,0.42 l -0.15,0.33 q -0.03,0.12 -0.09,0.21 0,0.09 -0.06,0.21 0,0.06 -0.15,0.27 L 9.96,-7.2 q 0.03,0 0.06,0 0.06,0 -0.12,0.18 L 9.84,-6.93 Q 9.81,-6.84 9.78,-6.75 L 9.66,-6.48 9.21,-5.64 Q 9.15,-5.67 9.12,-5.55 9.06,-5.37 9,-5.28 l -0.06,0.12 q -0.06,0.03 -0.15,0.21 l -0.06,0.12 q -0.06,0.15 -0.15,0.27 l -0.06,0.03 q -0.09,0 -0.12,0.09 L 8.07,-4.05 7.8,-3.72 7.68,-3.6 Q 7.56,-3.48 7.5,-3.45 l -0.12,0.12 q -0.06,0 -0.15,0.15 l -0.12,0.09 q -0.15,0.18 -0.33,0.33 -0.24,0.24 -0.3,0.24 l -0.09,0.09 q -0.18,0.09 -0.18,0.12 l -0.12,0.12 -0.21,0.15 -0.54,0.3 -0.33,0.06 Q 4.95,-1.62 4.86,-1.59 4.77,-1.56 4.65,-1.56 L 4.56,-1.53 H 4.29 q -0.21,0 -0.27,0.03 -0.12,0 -0.3,-0.06 -0.09,-0.06 -0.27,-0.06 -0.06,-0.06 -0.18,0 -0.06,0.03 -0.21,0.03 H 2.97 q -0.18,0 -0.18,0.06 L 2.58,-1.59 2.49,-1.53 2.19,-1.5 Q 2.01,-1.56 1.83,-1.65 L 1.8,-1.77 1.74,-1.83 v -0.36 l 0.03,-0.39 q 0,-0.24 0.06,-0.3 v -0.24 q 0,-0.36 0.03,-0.45 v -0.66 l 0.03,-0.39 q 0,-0.33 0.03,-0.42 0,-0.18 0.03,-0.24 l -0.03,-0.3 v -0.33 q 0.03,-0.15 0.03,-0.3 0.03,-0.09 0.03,-0.24 0,-0.15 0.03,-0.21 v -0.78 l 0.03,-0.3 Q 2.07,-7.86 2.07,-7.98 2.1,-8.13 2.1,-8.28 v -0.63 q 0.03,-0.03 0.03,-0.3 L 2.19,-9.9 q 0,-0.21 0.03,-0.3 0,-0.21 -0.03,-0.24 v -0.27 l 0.03,-0.72 q 0,-0.24 0.06,-0.48 0.03,-0.15 0.03,-0.33 v -0.84 q 0.03,-0.12 0.03,-0.27 0.03,-0.18 0.03,-0.36 v -0.3 q 0,-0.24 0.03,-0.3 v -0.39 q 0.03,-0.15 0.03,-0.3 0.03,-0.09 0.03,-0.21 v -0.36 q 0.03,-0.15 0.03,-0.3 v -0.12 q 0,-0.12 0,-0.27 l 0.03,-0.24 q 0.03,-0.15 0.03,-0.33 l -0.03,-0.3 q 0,-0.3 0.03,-0.39 0.03,-0.18 0.03,-0.36 0.03,-0.09 0.03,-0.42 -0.03,-0.15 -0.06,-0.33 l -0.06,-0.09 q -0.09,0 -0.18,0 -0.06,-0.03 -0.12,-0.09 L 2.01,-18.9 q -0.27,-0.09 -0.33,-0.15 -0.03,0 -0.42,-0.3 -0.12,-0.15 0.06,-0.24 z M 6.33,-3.24 6.51,-3.36 6.84,-3.69 Q 6.93,-3.75 6.99,-3.81 L 7.08,-3.9 7.44,-4.5 7.71,-4.98 v -0.09 l 0.3,-0.72 Q 8.04,-5.97 8.07,-6.15 8.16,-6.18 8.13,-6.33 L 8.16,-6.54 8.25,-6.78 Q 8.28,-6.87 8.28,-6.99 8.37,-7.38 8.37,-7.41 L 8.4,-7.47 q 0,-0.15 -0.03,-0.15 l 0.06,-0.15 q -0.06,0.03 0,-0.12 v -0.06 l 0.09,-0.6 Q 8.46,-8.67 8.55,-8.79 L 8.49,-9.12 8.55,-9.21 8.58,-9.33 v -0.21 q 0,-0.06 -0.03,-0.15 L 8.52,-9.78 8.58,-9.93 8.28,-11.19 7.95,-11.52 7.83,-11.7 7.71,-11.73 q -0.18,0.06 -0.3,-0.18 H 7.29 q -0.15,0 -0.45,-0.06 L 6.72,-12 H 6.69 l -0.06,0.09 q -0.12,0.03 -0.27,0.06 l -0.51,0.27 q -0.12,0.09 -0.24,0.18 l -0.3,0.27 -0.51,0.57 q 0.03,0.06 -0.06,0.15 l -0.18,0.36 -0.03,0.12 q 0,0.06 -0.03,0.09 l -0.03,0.09 q 0,0.12 0,0.21 L 4.38,-9.42 4.41,-9.3 4.29,-8.31 4.26,-7.98 Q 4.23,-7.65 4.23,-7.05 L 4.2,-6.84 v 0.24 l -0.09,0.54 0.06,0.45 q -0.03,0.09 -0.03,0.42 v 0.21 q 0,0.09 0,0.18 v 0.27 l 0.03,0.12 Q 4.2,-4.29 4.2,-4.2 l 0.09,0.3 0.18,0.33 0.3,0.36 0.27,0.15 q 0.24,0.09 0.48,0.09 0.21,0 0.27,-0.03 l 0.24,-0.06 z m 6.960013,-16.47 q 2.46,1.5 4.98,3.3 1.08,0.9 -0.48,0.36 -2.7,-1.14 -4.98,-2.31 -0.69,-0.39 -0.51,-0.9 0.12,-0.57 0.42,-0.63 0.18,-0.03 0.57,0.18 z m 0.27,8.58 -0.3,-0.15 q 1.26,-1.11 2.55,-1.65 1.38,-0.57 1.86,0 0.33,0.39 0.24,1.86 -0.06,0.78 -0.39,3.21 -0.54,3.96 -0.24,4.62 0.24,0.6 1.26,-0.03 0.54,-0.33 0.99,-0.75 l 0.33,0.12 q -2.55,2.37 -3.42,2.46 -1.41,0.06 -1.32,-2.73 0.27,-3.06 0.6,-5.28 0.33,-2.34 -0.42,-2.43 -0.75,-0.03 -1.74,0.75 z"
         id="text5"
         transform="matrix(1.3333333,0,0,1.3333333,156.48,145.76)"
         aria-label="bì" />
    </g>
    <g
       id="g6">
      <path
         style="font-size:60px;font-family:'方正灵飞经小楷 简';fill:#808080"
         d="m 34.92,-12.18 q -1.2,0.06 -2.16,0.84 -1.2,0.12 -1.74,0.18 -0.84,0.06 -1.56,0.18 -0.3,-0.12 -0.6,0.12 -0.24,0.18 -0.06,0.48 0.54,0.3 1.02,1.38 0.3,0.6 0.72,1.14 0.66,-0.24 1.32,-0.48 0.54,-0.12 1.2,-0.12 0.6,-0.18 1.26,0 0.48,0.18 0.9,0.36 0.12,0.9 -0.9,1.14 -0.42,0.54 -1.2,0.66 -1.02,0.18 -1.98,0.54 -0.6,0.24 -0.54,0.78 0.06,0.54 0.12,1.08 0,0.36 -0.06,0.72 -0.12,0.42 0.18,0.72 0.12,0.06 0.96,-0.12 0.42,0 0.78,0 0.78,-0.18 1.62,0.36 0.6,-0.06 1.14,0.18 0.36,-0.18 0.42,-0.54 0.06,-0.36 0.18,-0.72 0.3,-2.4 0.24,-3.12 0,-1.56 0.06,-1.74 0,-0.96 0,-1.98 -0.12,-1.62 -0.3,-1.86 -0.48,-0.42 -1.02,-0.18 z m 0.3,-2.34 q 0.48,-0.12 1.2,0.12 0.78,0.24 1.14,0.18 1.08,0.72 2.16,1.38 0.72,0.72 0.84,1.8 0.12,0.48 0.24,0.9 0,2.1 0.24,2.82 0,1.26 0.06,1.92 -0.06,2.04 -0.06,4.08 Q 40.62,0 40.38,0.96 40.14,1.68 39.84,2.4 39.36,3.42 38.28,3.36 37.98,3.12 37.5,3.78 36.9,4.08 36.66,4.02 36.36,4.02 36.3,3.78 36.18,3.48 36.06,3.3 35.52,3 35.16,1.98 q 0,-0.24 -0.36,-0.6 -0.36,-0.36 -0.3,-0.66 0.06,-0.54 -0.54,-0.9 -0.24,-0.78 -0.9,-0.42 -0.6,0 -1.08,0.3 -0.48,0.12 -1.02,0.24 -1.38,0.3 -2.82,0.42 Q 27.36,0.3 26.7,0 q -0.9,-0.6 -1.5,-2.16 -0.42,-0.66 -0.66,-1.2 0.18,-0.66 0,-1.38 0,-0.36 -0.12,-0.66 -0.12,-0.3 0.18,-0.6 0.06,-0.9 -0.06,-1.62 -0.06,-0.78 -0.12,-1.56 -0.42,-1.14 -0.9,-1.68 -0.3,-0.3 -0.54,-0.48 0,-0.06 0.12,-0.12 0.9,0 1.74,-0.42 0.54,-0.3 1.2,0 0.3,0.18 1.08,0.78 0.42,0.18 0.84,-0.12 0.36,-0.36 0.78,-0.54 0.48,-0.3 1.5,-0.66 0.9,-0.3 1.32,-0.54 1.86,-0.6 2.28,-0.78 0.84,-0.72 1.38,-0.78 z m 1.14,-6.78 H 36.3 q -0.18,0.06 -0.48,0.06 -0.24,-0.06 -0.3,0.18 0.06,0.3 0.9,0.12 0.3,0 0.24,-0.24 0,-0.06 0,-0.12 -0.12,-0.18 -0.3,0 z m -8.34,-3.66 -0.12,0.06 q 0.18,0.78 0.3,1.56 0.06,0.18 0.06,0.6 -0.12,0.78 0.24,1.02 0.48,-0.12 2.1,-0.66 0.3,-0.78 0.36,-1.56 0.06,-0.3 -0.12,-0.6 -0.18,-0.3 -0.42,-0.06 -0.3,-0.06 -0.78,0 -0.66,0.12 -0.9,-0.06 -0.42,-0.3 -0.72,-0.3 z m 9.9,-6.84 q -0.18,0.06 -1.68,0.24 -0.72,0.12 -1.5,0.24 -0.48,-0.06 -1.68,0.48 -0.24,0.12 -0.54,0.12 -0.36,0.06 -0.36,0.36 0.6,0.54 1.2,1.02 0.3,0.36 0.36,0.96 0.06,0.48 0.54,0.54 0.48,0 0.96,0 0.54,0.12 1.02,0.18 0.36,-0.12 0.72,0.12 0.36,0.24 0.24,0.6 -1.02,0.96 -2.46,1.32 -0.96,0.3 -1.14,0.72 -0.18,0.54 -0.42,1.08 -0.24,0.42 -0.24,0.78 0.6,0.12 1.08,-0.06 1.14,0 2.28,0 0.66,0 0.72,-0.6 0.12,-0.6 0.3,-1.02 0.3,-1.02 0.54,-2.1 0.3,-1.38 0.6,-2.76 0.18,-1.62 0.12,-1.8 0.06,-0.3 -0.24,-0.48 -0.24,-0.12 -0.42,0.06 z m -3,-11.82 q 0.24,-0.06 0.72,0.12 0.48,0.18 0.78,0.06 0.36,-0.18 0.66,0 0.3,0.24 0.54,0.54 0.9,0.6 2.1,0.48 0.84,0 1.5,0.48 0.72,0.54 0.54,1.32 -0.18,0.54 -0.72,0.84 -0.54,0.3 -0.96,0.66 -1.5,0.42 -2.4,1.38 -0.48,0.12 -1.38,0.9 -0.54,0.48 -0.9,0.66 -1.38,1.26 -3,2.1 -0.66,0.06 -1.74,0.84 -0.9,0.66 -1.5,0.78 -1.38,0.66 -2.82,1.26 -1.32,0.12 -2.16,0.48 -0.48,0.3 0.36,0.66 1.08,0.24 1.68,0.84 0.84,0.48 1.08,2.04 0.12,0.78 0.54,1.14 2.46,-0.6 2.82,-0.78 0.42,-0.18 0.42,-0.6 -0.06,-0.48 0,-0.84 0,-1.08 -0.54,-1.86 -1.02,0 -2.82,0.36 -0.66,0.3 -1.56,-0.24 -0.12,0 -0.12,-0.12 0,-0.18 0.3,-0.12 2.46,-0.66 2.76,-0.78 1.62,-0.54 3.18,-1.14 1.92,-0.42 2.4,-0.48 0.84,-0.24 1.62,-0.48 0.18,-0.06 1.74,-0.84 0.48,-0.24 1.02,-0.54 0.54,-0.3 1.14,-0.06 0.48,-0.12 1.2,0.48 0.18,0.3 0.78,0.42 0.54,0.12 0.66,0.18 0.6,-0.06 0.9,0.66 0.78,0.78 1.14,1.86 0.18,1.38 0.36,2.7 -0.18,0.78 -0.42,1.5 -0.12,0.6 -0.78,2.1 0,0.06 -0.36,1.5 -0.18,0.54 -0.36,1.08 -0.42,0.18 -0.6,0.54 -0.18,0.42 -0.36,0.78 -0.12,0.36 -0.66,0.96 -0.6,0.66 -0.72,1.02 -0.18,0.12 -0.12,0.24 0.24,0.18 0.54,0.12 0.48,-0.12 1.14,-0.12 0.6,-0.42 1.14,-0.84 0.3,0.12 0.66,-0.24 0.36,-0.3 0.6,-0.24 1.38,0.18 2.7,0.36 0.66,0.18 1.62,0.12 1.92,0.24 2.82,1.38 0.66,1.02 -0.54,1.8 -1.32,1.2 -3.18,0.3 -0.84,-0.18 -1.38,-0.6 -1.32,-0.78 -3.12,-0.66 -0.42,0 -0.84,0 -0.24,0.06 -0.9,0 -0.6,-0.06 -0.9,0.06 -0.84,0 -0.96,0.06 -1.56,0.06 -3.12,0.12 -0.84,0.12 -1.68,0.18 -0.78,0.12 -1.56,0.18 -1.14,0.42 -2.34,0.78 -0.24,0 -1.2,0.48 -1.38,0.48 -2.76,0.96 -0.9,0.24 -1.68,0.66 -1.08,0.24 -2.1,0.6 -2.1,0.84 -2.64,1.02 -0.42,0.12 -0.84,0.24 -1.02,0.36 -2.04,0.66 -0.48,0 -1.26,0.36 -0.66,0.3 -0.96,0.36 -0.9,0.24 -1.92,0.3 -1.2,-0.3 -1.92,-0.78 -1.14,-0.6 -1.32,-1.02 -0.42,-0.36 -0.6,-0.54 0.06,-0.06 0.24,0 0.72,0.24 1.92,0.24 0.9,-0.12 1.8,-0.3 1.32,-0.54 3.18,-0.96 1.8,-0.48 3.54,-0.96 1.14,-0.42 2.1,-0.48 1.26,-0.18 2.46,-0.42 0.96,-0.36 2.1,-0.54 1.14,-0.36 2.4,-0.66 0.9,-0.36 1.92,-0.6 1.02,-0.24 1.74,-0.3 0.9,-0.24 1.92,-0.3 0.3,0 0.6,-0.12 0.3,-0.12 0.18,-0.36 0.06,-0.3 -0.36,-0.72 -0.3,-0.3 -0.3,-0.54 0.12,-0.66 -0.3,-1.14 -0.48,-0.54 -1.08,-0.36 -1.02,0 -1.74,0.24 -0.3,0 -2.4,0.66 -0.6,0.24 -1.26,0.36 -0.48,-0.12 -0.66,0.42 -0.24,0.6 -0.42,0.72 -0.48,0.36 -1.44,1.92 -0.18,0.42 -0.54,0.24 -0.36,-0.12 -0.66,-0.18 -0.24,0.12 -0.36,-0.06 -0.18,-0.24 -0.36,-0.3 -1.08,-0.48 -1.74,-2.7 -0.18,-0.6 -0.42,-1.2 l -0.24,-1.98 q -0.18,-1.38 -0.42,-2.64 -0.12,-1.38 -0.36,-1.98 0,-0.48 -0.54,-1.2 -0.36,-0.48 -0.42,-0.78 -0.6,-1.14 -0.96,-2.28 -0.06,-0.18 0,-0.24 0.06,-0.06 0.18,0 0.24,0.06 0.48,0.12 0.9,-0.06 3.06,0.96 0.36,0.3 0.9,0 0.9,-0.48 1.8,-1.02 1.08,-0.72 2.64,-2.28 0.48,-0.72 1.02,-1.38 0.6,-0.72 1.2,-1.44 0.12,-0.12 0.96,-1.32 0,-0.18 0.3,-0.48 0.3,-0.36 0.24,-0.54 -0.78,-0.6 -1.08,-0.06 0,0.72 -0.6,1.14 -0.36,0.42 -1.08,0.66 -0.66,0.12 -1.2,0.42 -1.44,0.78 -3.18,1.44 -0.6,0.36 -1.2,0.72 -0.48,0.12 -1.44,0.72 -0.72,0.42 -1.2,0.6 -1.14,0.66 -1.98,1.5 -0.42,-0.18 -1.02,0.3 -0.9,0.36 -1.68,1.02 -0.48,0 -0.78,0.24 -0.9,0.3 -1.86,0.6 -0.84,-0.18 -1.26,0 -0.54,0.24 -0.36,-0.12 1.14,-0.48 2.7,-1.74 0.66,-0.36 1.2,-1.02 0.6,-0.66 1.2,-1.2 0.12,-0.36 0.6,-0.78 0.54,-0.48 0.6,-0.78 1.32,-1.56 1.98,-2.04 0.42,-0.54 1.62,-1.74 1.02,-0.96 1.44,-1.56 0.36,-0.24 0.36,-1.08 0,-0.6 0.18,-0.84 0.18,-0.48 0.6,-0.36 0.42,0.12 0.9,0.12 0.3,-0.3 1.2,0.3 0.66,1.14 1.56,1.32 1.38,0.36 2.52,1.5 1.26,0 2.4,-0.6 0.36,-0.12 0.54,-0.72 0.12,-0.54 0.42,-0.72 0.24,-0.24 0.36,-0.78 0.12,-0.54 0.24,-0.72 z"
         id="text6"
         transform="matrix(1.3333333,0,0,1.3333333,220.64,224.4)"
         aria-label="鲁" />
    </g>
    <g
       id="g8"
       transform="translate(-10,12)">
      <path
         style="font-size:30px;font-family:'方正灵飞经小楷 简';fill:#808080"
         d="m 1.83,-19.53 h 0.06 l 0.12,-0.03 q 0.15,-0.03 0.27,-0.09 0.06,0 0.33,-0.09 0.18,-0.09 0.21,-0.09 0.24,0 0.42,-0.09 0.18,-0.09 0.27,-0.09 l 0.27,-0.06 q 0.12,-0.03 0.21,-0.06 0.12,-0.03 0.24,-0.09 0.15,0 0.33,-0.09 0.27,-0.12 0.48,-0.15 0.09,0 0.18,-0.03 0.03,-0.03 0.18,0.03 0.03,0.03 0.03,0.06 h 0.06 q 0.06,0 0.06,0.18 v 0.27 q 0,0.21 -0.03,0.3 v 0.63 q 0,0.18 -0.03,0.33 0,0.33 -0.03,0.48 0,0.39 -0.03,0.42 0,0.12 -0.03,0.21 v 1.02 q 0,0.15 0,0.27 0,0.21 -0.03,0.24 0,0.15 -0.06,0.21 v 0.54 q 0,0.3 -0.03,0.42 v 0.63 q -0.03,0.09 -0.03,0.39 v 0.33 q -0.06,0.66 -0.06,0.99 l -0.03,0.42 q 0,0.21 -0.03,0.42 v 0.3 q 0,0.18 -0.03,0.33 l -0.03,0.36 v 0.66 q 0,0.21 -0.03,0.27 l -0.03,0.21 q 0,0.21 -0.03,0.3 l -0.03,0.54 v 0.21 q 0,0.18 0,0.33 0,0.15 -0.03,0.3 0.03,0 0.03,0.24 -0.03,0 -0.03,0.27 l -0.03,0.09 q 0,0.09 -0.03,0.18 v 0.75 Q 4.83,-6.3 4.83,-6.15 v 0.21 q 0.03,0.15 0.03,0.27 0,0.12 -0.03,0.24 0,0.15 -0.03,0.27 0.03,0.03 0.03,0.18 0.03,0.03 0.03,0.21 v 0.15 q 0,0.09 -0.03,0.15 l 0.06,0.15 q 0,0.06 0.09,0.33 0.03,0.15 0.06,0.3 l 0.03,0.09 q 0.06,0.12 0.12,0.21 l 0.12,0.15 0.12,0.06 0.24,0.06 q 0.27,0 0.27,0.03 l 0.42,-0.18 q 0.18,0.03 0.27,-0.06 l 0.84,-0.54 0.27,-0.21 q 0.12,-0.09 0.24,-0.18 l 0.24,-0.09 0.21,0.06 0.03,0.12 -0.18,0.15 q -0.3,0.3 -0.33,0.24 -0.03,0.09 -0.12,0.06 -0.06,0.15 -0.12,0.12 L 7.68,-3.51 7.17,-3.18 6.96,-3 Q 6.87,-2.97 6.72,-2.82 L 6.54,-2.7 q -0.3,0.21 -0.6,0.42 l -0.18,0.12 -0.27,0.09 -0.18,0.15 q -0.09,0 -0.12,0.12 l -0.78,0.24 q -0.15,0.03 -0.3,0.03 -0.27,0.06 -0.33,0 L 3.66,-1.56 3.6,-1.62 3.33,-1.74 q 0,-0.09 -0.12,-0.09 L 3.12,-1.95 Q 3,-2.01 3,-2.1 L 2.94,-2.25 Q 2.85,-2.43 2.85,-2.49 2.79,-2.55 2.79,-2.7 L 2.76,-2.82 Q 2.64,-2.85 2.7,-3 2.76,-3.06 2.64,-3.18 2.7,-3.27 2.64,-3.45 L 2.61,-3.54 V -4.11 L 2.58,-4.26 q 0.18,-0.18 0.03,-0.3 L 2.64,-4.65 Q 2.67,-4.77 2.67,-4.89 V -5.13 L 2.7,-5.46 Q 2.73,-5.52 2.64,-5.52 l 0.03,-0.15 q 0.06,-0.12 0.06,-0.27 v -0.33 q 0,-0.3 0.03,-0.33 Q 2.79,-6.72 2.79,-6.84 2.76,-6.9 2.76,-7.11 v -0.3 q 0.03,-0.06 0.03,-0.3 L 2.82,-8.4 q 0,-0.21 0.03,-0.27 0,-0.12 0,-0.24 v -0.27 q 0,-0.18 0.03,-0.21 0.03,-0.12 0.03,-0.27 v -0.3 q 0.03,-0.06 0.03,-0.39 v -0.54 q 0.03,-0.18 0.03,-0.36 v -0.27 q 0,-0.21 0.03,-0.27 0.06,-0.15 0,-0.21 v -0.21 q 0.06,-0.12 0.06,-0.24 v -0.27 q 0.03,-0.15 0.03,-0.33 v -0.24 q 0,-0.12 0,-0.24 0.03,-0.15 0.06,-0.3 0,-0.12 -0.03,-0.24 -0.06,-0.06 0,-0.21 0.03,-0.12 0.03,-0.24 l 0.03,-0.72 q -0.03,-0.09 0.06,-0.12 l -0.03,-0.15 v -0.24 q 0,-0.15 0.03,-0.21 0,-0.12 -0.03,-0.27 0,-0.3 0.03,-0.42 v -0.36 Q 3.27,-17.1 3.27,-17.19 3.3,-17.25 3.3,-17.4 3.27,-17.43 3.27,-17.64 L 3.33,-18 q 0,-0.18 0,-0.39 l 0.03,-0.06 v -0.18 Q 3.15,-18.69 3.03,-18.81 2.94,-18.78 2.82,-18.9 L 2.64,-18.99 Q 2.46,-19.08 2.4,-19.08 l -0.18,-0.09 -0.33,-0.27 q -0.15,0 -0.06,-0.09 z m 3.18,1.38 H 4.98 q 0.03,0.06 0.03,0 z m 4.3199936,7.56 -0.3,-0.15 q 2.1300004,-1.8 3.4800004,-2.22 1.59,-0.72 2.25,0.09 0.3,0.54 0.03,2.01 -0.27,1.47 -0.51,3 -0.45,2.85 0,3.84 0.3,0.57 0.81,0.66 0.51,0.09 1.02,-0.3 0.54,-0.39 1.23,-1.29 0.84,-1.08 1.14,-2.1 l 0.36,-3.27 q 0.21,-2.16 0.36,-2.31 0.21,-0.24 0.99,-0.54 0.84,-0.33 1.02,-0.03 0.15,0.3 -0.03,1.95 l -0.3,3.39 q -0.3,3.21 -0.03,3.93 0.18,0.57 0.78,0.66 0.54,0.06 1.05,-0.33 0.33,-0.27 0.72,-0.75 l 0.33,0.27 q -1.38,1.68 -2.52,2.37 -0.9,0.54 -1.65,0.09 -0.54,-0.3 -0.84,-0.93 -0.57,-1.23 -0.42,-3.03 -0.63,0.99 -1.53,2.01 -1.17,1.32 -2.07,1.86 -0.9,0.54 -1.65,0.09 -0.48,-0.27 -0.84,-0.93 -0.57,-1.2 -0.39,-3.36 0.12,-1.38 0.6,-4.41 0.33,-1.71 -0.45,-1.71 -1.32,0.33 -2.6400004,1.44 z m 5.8200004,-8.07 q -0.18,-0.51 -0.03,-0.54 0.15,-0.03 0.54,0.42 0.75,0.9 1.74,2.52 0.51,-0.72 1.2,-1.47 0.69,-0.72 0.99,-1.05 0.93,-0.93 0.48,0.12 -1.08,1.95 -2.22,3.6 -0.27,0.33 -0.45,0.33 -0.18,0 -0.42,-0.33 -0.93,-1.65 -1.83,-3.6 z"
         id="text8"
         transform="matrix(1.3333333,0,0,1.3333333,254.64,145.76)"
         aria-label="lǔ" />
    </g>
  </g>
</svg>
