<?xml version="1.0" encoding="UTF-8" standalone="no"?>
<!-- Created with Inkscape (http://www.inkscape.org/) -->

<svg
   width="100%"
   height="100%"
   viewBox="0 0 112.56421 11.858028"
   version="1.1"
   id="svg1"
   xmlns="http://www.w3.org/2000/svg"
   xmlns:svg="http://www.w3.org/2000/svg">
  <defs
     id="defs1" />
  <path
     d="m 6.0959953,4.8871445 h 0.028222 l 0.1975554,0.056444 q 0.1269999,-0.028222 0.2398887,0.042333 0.1269999,0.070556 0.1128888,0.1975554 -0.042333,0.070556 -0.042333,0.282222 0,0.1552221 -0.042333,0.2539998 0,0.042333 -0.070556,0.2539998 0.042333,0.070555 0.014111,0.2116665 -0.028222,0.056444 0.014111,0.098778 0.028222,0.028222 0.084667,-0.028222 L 7.0132168,5.7479216 q 0.1269999,-0.2398887 0.282222,-0.4515552 0.042333,-0.070556 0.014111,-0.1269999 -0.028222,-0.056444 -0.098778,-0.042333 -0.070556,-0.141111 0.056444,-0.2116665 0.1269999,0.028222 0.2116665,-0.028222 0.2539998,0.084667 0.4938885,0.2257776 0.1834443,0 0.2681109,0.098778 0.1552221,0.141111 -0.1269999,0.3809997 -0.028222,0.042333 -0.098778,0.084667 Q 7.9163272,5.7338105 7.9022161,5.7902549 7.6905496,5.9031437 7.6341052,6.0583658 7.4224387,6.227699 7.2389944,6.4111433 7.0555501,6.5240321 6.900328,6.6792542 6.7451059,6.792143 6.5898838,6.9191429 6.4346617,7.0320317 6.4064395,7.2295871 q -0.056444,0.042333 -0.056444,0.1975554 0,0.098778 -0.028222,0.1552221 0,0.1269999 0,0.2539998 -0.1128888,0.1975554 -0.1128888,0.3386664 0,0.141111 -0.014111,0.282222 0.028222,0.070556 0.028222,0.2822221 0.014111,0.1834443 0.028222,0.3668886 -0.014111,0.2398887 0.1269999,0.423333 0.098778,0.098778 0.4656663,0.1834443 0.1834443,0.028222 0.5785551,0 0.3951108,0 0.7761105,-0.056444 0.1128888,-0.014111 0.2257776,0 0.3245553,-0.042333 0.6491106,-0.084667 0.2681109,-0.042333 0.5362218,-0.098778 0.1128888,-0.098778 0.141111,-0.2398887 0.042333,-0.141111 0.084667,-0.2681109 0.042333,-0.141111 0.084667,-0.282222 0.042333,-0.268111 0.070555,-0.550333 0,-0.042333 0.028224,-0.042333 0.04233,0.014111 0.08467,0.070556 0.08467,0.056444 0.127,0.1552221 0.02822,0.098778 0.08467,0.1834443 0.04233,0.1552222 0.155222,0.3104443 0.01411,0.2116665 0.324555,0.3527775 0.310445,0.042333 0.437444,0.3527775 0.01411,0.084667 0.01411,0.1834443 -0.04233,0.1128888 -0.155222,0.141111 -0.09878,0.042333 -0.183445,0.098778 -0.141111,0.1975558 -0.352777,0.2539998 -0.197555,0.07056 -0.395111,0.127 -0.141111,0.02822 -0.296333,0.04233 -0.141111,0.05645 -0.282222,0.09878 -0.3668886,-0.02822 -0.7478883,0 -0.2539998,0.02822 -0.4656663,0 -0.282222,0.02822 -0.5785551,0.05644 -0.2257776,0.02822 -0.5221107,-0.01411 -0.1269999,-0.01411 -0.2681109,-0.02822 -0.084667,0 -0.1975554,-0.05644 Q 6.6745504,10.362251 6.6039949,10.362251 6.335884,10.277585 6.1524397,10.09414 5.77144,9.7836963 5.7432178,9.1063635 5.7291067,8.9511414 5.7149956,8.7959193 5.7432178,8.4149195 5.7291067,8.2455863 5.7432178,8.0903642 5.7573289,7.921031 5.7432178,7.8363644 5.77144,7.7516978 5.7855511,7.6529201 5.7149956,7.6105868 5.64444,7.638809 5.5174401,7.7375867 5.362218,7.8645866 5.2634403,7.8786977 5.0235516,8.0762531 4.8118851,8.1468086 q -0.084667,0.028222 -0.141111,-0.028222 -0.028222,-0.028222 0.014111,-0.056444 0.084667,0 0.3386664,-0.1552221 Q 5.079996,7.8786977 5.1928848,7.7516978 5.3339958,7.6105868 5.4468846,7.5682535 5.7008844,7.3424759 5.8984399,7.1025872 5.9266621,6.8909207 5.9548843,6.6651431 5.9972176,6.4534766 5.9972176,6.227699 6.0113287,6.0019214 6.0677731,5.7902549 6.053662,5.7196994 6.0818842,5.522144 6.1101064,5.2963664 6.0677731,5.1834776 6.0254398,5.0705888 5.8843288,5.1693665 5.8137733,5.1552554 5.8278844,5.0846999 5.8419955,5.0141444 5.8984399,5.0000333 6.0113287,4.9718111 6.0959953,4.8871445 Z M 6.2229952,0.82314764 Q 6.4487728,0.79492544 6.5616616,0.87959204 6.7168837,0.90781424 6.8579947,1.020703 6.9426613,1.0065919 7.1543278,1.1335918 7.323661,1.161814 7.3801054,1.3593694 7.3518832,1.5851471 7.2389944,1.6980359 7.0837723,1.8250358 7.0273279,1.9661468 6.9567724,2.1213689 6.8579947,2.2624799 6.7027726,2.5447019 6.4911061,2.8128128 q 0,0.070555 -0.056444,0.1552221 -0.042333,0.070555 0.028222,0.141111 0.2398887,-0.028222 0.4797774,-0.056444 0.2681109,-0.056444 0.5221107,-0.1269999 0.042333,0 0.1128888,-0.042333 0.056444,-0.028222 0.098778,-0.042333 0.2398887,-0.098778 0.4938885,-0.1552221 0.1975554,0 0.3809997,0 0.141111,0.028222 0.2681109,0.042333 0.1128888,0 0.2398887,0.028222 0.2257776,0.070556 0.3104442,0.084667 Q 9.6378814,3.0385904 9.5673259,3.2079236 9.4121038,3.3208124 9.3133261,3.4760345 9.0311041,3.54659 8.7912154,3.4195901 8.4666601,3.3067013 8.1421048,3.2784791 q -0.1693332,0.028222 -0.3386664,0.042333 -0.141111,0.028222 -0.2963331,0.042333 -0.141111,0 -0.2963331,0 L 6.6604393,3.3490346 q -0.2539998,0 -0.4374441,0.1128888 Q 6.2088841,3.54659 6.0818842,3.6594788 5.9831065,3.7441454 5.9548843,3.8005898 5.8561066,4.0263674 5.6726622,4.2380339 5.6021067,4.3650338 5.5174401,4.4638115 5.4468846,4.5908114 5.3198847,4.6895891 5.2493292,4.816589 5.1505515,4.9012556 5.0376627,5.0000333 4.938885,5.1129221 q -0.042333,0 -0.1128888,0.070556 -0.098778,0.084667 -0.141111,0.042333 Q 4.8965517,4.9153667 5.1082182,4.6049225 5.2775514,4.2239228 5.4327735,3.8429231 5.5174401,3.6735899 5.3904402,3.687701 5.2069959,3.730034 5.0094405,3.758256 4.6425519,3.8147 4.4873298,3.899367 q -0.084667,0 -0.1128888,0.084667 -0.028222,0.084667 0,0.1552221 Q 4.346219,4.3650337 4.303885,4.5908113 4.317996,4.7460334 4.233329,5.0000332 4.24744,5.0847002 4.190996,5.2258108 4.148663,5.3245888 4.148663,5.395144 q 0.028222,0.056444 0.1552221,0.1128888 0.1269999,0.070556 0.1834443,0.141111 -0.014111,0.028222 0.028222,0.1128888 0.042333,0.084667 0.014111,0.141111 0,0.084667 -0.084667,0.1269999 -0.070556,0.042333 -0.1269999,0.084667 -0.070556,0.056444 -0.1552221,0.1128888 -0.098778,0.070555 0,0.1693332 0.1552221,0.141111 0.1834443,0.5221107 -0.056444,0.098778 -0.028222,0.282222 0.028222,0.1552221 0.014111,0.1975554 0.014111,0.098778 0.014111,0.1975554 0,0.3386664 0,0.6773328 0.028222,0.028222 0,0.098778 -0.028222,0.084667 0,0.1128888 0,0.1552222 -0.014111,0.3104443 -0.014111,0.2398887 -0.028222,0.4656663 -0.014111,0.1552221 -0.028222,0.2963331 -0.056444,0.1128888 -0.028222,0.3104442 -0.1128888,0.3104445 -0.1269999,0.6491105 -0.070556,0.112889 -0.070556,0.254 -0.070555,0.324556 -0.2257776,0.395111 -0.141111,0.169333 -0.2963331,0.225778 -0.1128888,0.05644 -0.1552221,-0.141111 -0.098778,-0.08467 -0.098778,-0.211667 0,-0.112889 -0.028222,-0.225777 Q 3.1891086,10.672696 3.2173308,10.531585 3.245553,10.376362 3.245553,10.235251 3.1749975,10.09414 3.3443307,9.9530295 3.4148862,9.8260296 3.4713306,9.5579187 3.527775,9.3039189 3.5701083,9.2051412 3.5983305,8.9652525 3.668886,8.753586 3.682997,8.5701416 3.739441,8.4008084 3.767663,8.1468086 3.781774,7.8786977 q 0,-0.084667 0,-0.1693332 V 7.1025872 Q 3.7676637,7.0038095 3.7958859,6.9050318 3.809997,6.792143 3.7394415,6.7356986 3.6406638,6.8344763 3.5418861,6.933254 3.3584418,7.1590316 3.1608864,7.3848092 3.0479976,7.5400313 2.9351088,7.6811423 2.8927755,7.7658089 2.6669979,8.0480309 2.4694425,8.3302529 2.3424426,8.4713639 2.1872205,8.7112527 1.9614429,8.9370303 1.7497764,9.0922524 1.5804432,9.4168077 1.41111,9.5579187 1.2841101,9.6990297 1.1712213,9.8260296 1.0442214,9.9389184 0.91722148,10.065918 0.83255488,10.207029 0.50799958,10.517473 0.18344427,10.827918 0.09877767,10.940806 -2.9563904e-8,10.898473 0.12699987,10.743251 0.23988867,10.588029 0.43744408,10.319918 0.62088838,10.051807 0.86077708,9.741363 1.0442214,9.4026966 1.0724436,9.3039189 1.2135546,9.1204746 1.3123323,8.9934747 1.3546656,8.9088081 1.552221,8.6124749 1.7356653,8.3020307 1.834443,8.203253 1.9896651,7.9492532 2.1025539,7.7658089 2.1872205,7.6670312 2.4694425,7.2436982 2.7375534,6.8203652 2.8081089,6.7498097 2.9351088,6.5522543 3.0197754,6.4111433 3.1185531,6.3123656 3.4431084,5.9031437 3.668886,5.4798107 3.7253304,5.3951441 3.6547749,5.3528108 3.5983305,5.2963664 3.5418861,5.2540331 q 0,-0.070556 0.056444,-0.084667 0.056444,-0.028222 0.1128888,0.028222 0.042333,-0.014111 0.1128888,0 0.1128888,0.028222 0.1552221,-0.014111 -0.028222,-0.1269999 -0.098778,-0.4938885 0,-0.1128888 -0.028222,-0.282222 0,-0.084667 -0.014111,-0.1552221 0,-0.084667 -0.070556,-0.098778 -0.2257776,0.098778 -0.4515552,0.1552221 -0.2398887,0.042333 -0.4374441,0.1834443 -0.070555,0.056444 -0.4374441,0.1975554 -0.141111,0.1552221 -0.3951108,0.2116665 -0.084667,0.042333 -0.2257776,0 Q 1.7074431,4.8730334 1.6651098,4.8730334 1.3405545,4.7460335 1.0442214,4.5625892 0.90311038,4.4779226 0.95955478,4.4638115 q 0.28222202,0.056444 0.43744412,0.014111 0.141111,0 0.3104442,-0.070556 Q 1.9896651,4.2944783 2.257776,4.1815895 2.3706648,4.1251451 2.8363311,3.9840341 2.9915532,3.9417008 3.1608864,3.9417008 3.4431084,3.8429231 3.7535526,3.7723676 3.809997,3.687701 3.7676637,3.5324789 L 3.7535526,3.2079236 Q 3.6124416,2.7140351 3.5842194,2.6575907 3.5559972,2.3471465 3.3019974,2.2342577 3.1467753,2.1495911 2.9492199,1.8955913 q 0.141111,0.042333 0.3951108,0.042333 0.3104442,0 0.4092219,0.028222 0.4515552,0.056444 0.6208884,0.2257776 0.1128888,0.070556 0.098778,0.1834443 Q 4.459108,2.4741462 4.444997,2.5870347 4.36033,2.6999235 4.416775,2.9680344 4.430886,3.0244784 4.402664,3.1655898 4.374442,3.2784786 4.388553,3.3490341 q 0.014111,0.070556 0,0.141111 Q 4.360331,3.5748121 4.459109,3.617145 4.8401073,3.5324789 5.2069959,3.4478123 5.4327735,3.3913679 5.64444,3.2784791 5.7149956,3.1373681 5.9548843,2.3894798 5.9972176,2.2201466 6.053662,2.0649245 6.1242175,1.8391469 6.2088841,1.3875916 6.2512174,1.2605917 6.1806619,1.1477029 6.1101064,1.0348141 5.9831065,1.020703 5.912551,1.0065919 5.912551,0.97836974 5.89844,0.92192534 5.983107,0.89370314 6.124218,0.92192534 6.2229952,0.82314764 Z M 19.572096,7.5118091 q -0.169333,0.084667 -0.239889,0.141111 -0.09878,0.084667 -0.02822,0.1975554 -0.01411,0.1552221 -0.02822,0.2963331 -0.141111,0.2963331 -0.07056,0.6349996 -0.01411,0.070555 0.02822,0.098778 0.05644,0.028222 0.112888,-0.028222 0.09878,-0.2116665 0.127,-0.4515553 0.05645,-0.2963331 0.155222,-0.7196661 0.01411,-0.028222 0.01411,-0.084667 0,-0.098778 -0.07056,-0.084667 z m -0.90311,-3.9369969 h 0.02822 q 0,0.014111 0,0.028222 -0.05645,0.014111 -0.02822,-0.028222 z M 17.751764,3.4478123 h 0.08467 q 0.268111,0.070556 0.564444,0.1834443 0.05644,0 0.08467,0.070556 0.02822,0.070555 0.07056,0.098778 0.127,0.1552221 0.04233,0.4374441 -0.141111,0.1269999 -0.254,0.2539998 -0.09878,0.141111 -0.268111,0.1975554 -0.04233,-0.014111 -0.09878,0.028222 -0.04233,0.028222 -0.07056,0.028222 -0.183444,0.098778 -0.366888,0.1834443 -0.09878,-0.056444 -0.141111,-0.028222 -0.268111,0.1269999 -0.366889,0.056444 -0.05644,0.014111 -0.141111,0.028222 -0.08467,0.014111 -0.09878,-0.056444 0.395111,-0.2681109 0.423333,-0.3104442 0.112889,-0.2398887 0.324556,-0.4656663 0.07055,-0.2398887 0.197555,-0.4374441 0.02822,-0.042333 0.01411,-0.084667 -0.02822,-0.056444 -0.08467,-0.042333 -0.05644,-0.028222 -0.04233,-0.056444 0.05645,-0.042333 0.127,-0.084667 z m 1.072444,-2.92099776 q 0.112888,0 0.127,0.0141111 0.239888,0.0423333 0.465666,0.0846666 0.05644,0.0282222 0.225777,0.0282222 0.211667,0.0141111 0.310445,0.0564444 0.141111,-0.0282222 0.239888,0.0705555 0.08467,0.0987777 0.169334,0.2116665 0.09878,0.33866636 0.04233,0.46566636 -0.08467,0.1834443 -0.183444,0.3668886 0.04233,0.1128888 0.239888,0.028222 0.423333,-0.028222 0.832555,-0.056444 0.112889,-0.056444 0.183444,-0.056444 0.04233,0 0.09878,-0.070556 0.07056,-0.098778 0.127,-0.084667 0.169333,-0.042333 0.381,-0.014111 l 0.465666,0.2963331 q 0.211667,0.070556 0.409222,0.2539998 0.169333,0.141111 0.197555,0.3668886 -0.01411,0.042333 0.01411,0.1269999 0.04233,0.1128888 0,0.1693332 -0.01411,0.098778 -0.126999,0.1975554 -0.08467,0.070555 -0.112889,0.1269999 -0.141111,0.028222 -0.324556,0.2116665 -0.141111,0.098778 -0.239888,-0.056444 -0.02822,-0.084667 -0.09878,-0.098778 -0.08467,-0.014111 -0.141111,-0.028222 -0.07055,-0.056444 -0.197555,0.014111 -0.09878,0.042333 -0.169334,0.028222 -0.282222,0.098778 -0.578555,0.1834443 -0.05644,0.028222 -0.239888,0.028222 -0.127,-0.042333 -0.225778,0.141111 -0.01411,0.070555 -0.08467,0.084667 -0.07055,0 -0.112888,0.028222 -0.05645,0.028222 -0.127,0.014111 -0.08467,-0.028222 -0.112889,-0.014111 -0.127,0.028222 -0.254,0.056444 -0.112889,0.098778 -0.268111,0.1128888 -0.141111,0 -0.282222,0.014111 -0.07055,0.042333 -0.169333,0.070555 -0.09878,0.014111 -0.09878,0.1269999 -0.02822,0.084667 0.08467,0.2116665 0.127,0.141111 0.09878,0.2257776 -0.02822,0.141111 -0.169334,0.1693332 -0.05644,0.056444 -0.01411,0.084667 0.05645,0.028222 0.127,0.028222 0.395111,0.056444 0.620889,0.1975554 0.253999,0.098778 0.507999,0.1975554 0.08467,0.028222 0.254,0.141111 0.155222,0.1128888 0.239889,0.141111 0.225777,0.141111 0.451555,0.2681109 0.08467,0.014111 0.183444,0.098778 0.127,0.098778 0.197556,0.1128888 0.169333,0.1128888 0.324555,0.2116665 0.169333,0.070556 0.634999,0.4797774 0.155223,0.1693332 0.437445,0.1975554 0.39511,0.070555 0.493888,0.1128888 0.254,0.014111 0.493889,0.1552221 0.155222,0.028222 0.733777,0.282222 0.225777,0.028222 0.268111,0.1693332 0.07056,-0.014111 0.09878,0.042333 0.02822,0.070556 0.07056,0.1128888 0,0.084667 -0.08467,0.098778 -0.08467,0.028222 -0.155222,0.042333 -0.155222,0.014111 -0.282222,0.042333 -0.112889,0.1128888 -0.310444,0.056444 -0.05644,0 -0.155222,-0.042333 -0.09878,-0.042333 -0.169333,-0.014111 -0.05645,0.028222 -0.155222,-0.028222 -0.112889,-0.056444 -0.155222,-0.014111 -0.07056,0.014111 -0.07056,0.084667 -0.01411,0.056444 -0.01411,0.1128888 -0.04233,0.028222 -0.04233,0.141111 0,0.084667 -0.02822,0.1269999 -0.141111,-0.084667 -0.296333,-0.1693332 -0.07055,0 -0.169333,-0.070556 -0.08467,-0.070555 -0.127,-0.070555 -0.169337,-0.098777 -0.46567,-0.366888 -0.169333,-0.098778 -0.296333,-0.2539998 -0.127,-0.1552221 -0.268111,-0.282222 -0.183444,-0.2398887 -0.381,-0.4797774 Q 21.350095,6.1289213 21.138428,5.9313659 20.898539,5.7479216 20.686873,5.5503662 20.39054,5.239922 20.065984,5.1129221 19.854318,5.0282555 19.62854,4.9435889 19.487429,4.8307001 19.120541,4.7460335 q -0.127,0.056444 -0.197556,0.1693332 -0.07056,0.1128888 -0.155222,0.2257776 -0.05644,0.2398887 -0.239888,0.423333 -0.254,0.3104442 -0.366889,0.4656663 -0.169333,0.1693332 -0.578555,0.705555 -0.05645,0.014111 -0.04233,0.070556 0.01411,0.042333 0.07055,0.056444 0.366889,-0.042333 0.776111,0.2257776 0.09878,-0.014111 0.296333,0.098778 0.141111,-0.056444 0.268111,-0.1128888 0.197555,-0.2539998 0.550332,-0.3245553 0.352778,-0.070556 0.437445,-0.1128888 0.225777,0 0.705555,0.1975554 0.08467,0 0.155222,0.084667 0.05644,0.070556 0.141111,0.1269999 0.183444,0.1269999 0.310444,0.3104442 0.141111,0.141111 0.155222,0.3245553 -0.08467,0.1128888 0.05644,0.3527775 0.04233,0.1269999 -0.07056,0.1834443 -0.112889,0.070556 -0.169333,0.1552221 -0.05645,0.098778 -0.112889,0.1834443 0.02822,0.056444 0.155222,0.127 0.112889,0.056444 0.155222,0.1269999 0,0.042333 0.07056,0.1269999 0.08467,0.084667 0.07056,0.1693332 0.155222,0.2257776 0.169333,0.2963331 -0.05644,0.1552221 -0.183444,0.3104442 -0.169333,-0.028222 -0.197555,0.028222 -0.254,-0.056444 -0.352778,-0.1128888 -0.268111,-0.056444 -0.395111,-0.042333 -0.507999,-0.056444 -0.987777,0.098778 -0.09878,0.028222 -0.211666,0.042333 -0.09878,0.014111 -0.141111,0.1269999 -0.01411,0.1128888 0.04233,0.2257773 -0.02822,0.08467 0,0.268111 -0.02822,0.02822 -0.01411,0.09878 0.02822,0.07056 0.01411,0.09878 -0.01411,0.01411 0,0.08467 0.02822,0.07056 -0.02822,0.08467 -0.141111,-0.09878 -0.197556,-0.05645 -0.09878,0.127 -0.225777,0 -0.127,0 -0.211667,-0.09878 -0.08467,-0.08467 -0.169333,-0.155222 -0.112889,-0.04233 -0.183444,-0.141111 -0.127,-0.01411 -0.155222,-0.183445 -0.07056,-0.1128885 -0.127,-0.2257773 -0.04233,-0.1269999 -0.155222,-0.1693332 -0.169333,-0.042333 -0.07056,-0.141111 0.05645,-0.056444 -0.02822,-0.1693332 -0.08467,-0.098778 -0.02822,-0.1693332 0.04233,-0.2116665 0.08467,-0.423333 0,-0.1975555 -0.01411,-0.409222 0,-0.3104442 -0.01411,-0.6349995 Q 17.765879,7.5400352 17.709429,7.3848131 17.511873,7.2013688 17.314318,7.08848 17.173207,7.187258 16.975652,7.4553686 16.735763,7.6811462 16.538207,7.9210349 16.31243,8.1185903 16.086652,8.3161457 q -0.09878,0.098778 -0.381,0.2116665 -0.211666,0.084667 -0.310444,0.1552222 -0.07056,0.070556 -0.268111,0.1128888 -0.183444,0.042333 -0.253999,0.1128888 -0.09878,0.028222 -0.197556,0.056444 -0.239889,0.070555 -0.437444,0.1834443 -0.02822,-0.014111 -0.09878,0.028222 -0.05644,0.028222 -0.07056,0 0.254,-0.1693332 0.536222,-0.3104442 0.352777,-0.2116665 0.691444,-0.4938886 0.211666,-0.1269999 0.663221,-0.5785551 0.169333,-0.141111 0.324556,-0.2963331 0.225777,-0.2116665 0.64911,-0.6632217 0.08467,-0.056444 0.169333,-0.1834443 0.08467,-0.1269999 0.141111,-0.1693332 0.09878,-0.084667 0.254,-0.3104442 0.155222,-0.2116665 0.268111,-0.3104442 0.04233,-0.141111 0.225778,-0.3386664 0.141111,-0.1552221 0.183444,-0.2257776 0.254,-0.3386664 0.508,-0.6773328 0.04233,-0.098778 0.253999,-0.4515552 0.02822,-0.028222 0.08467,-0.1552221 0.07056,-0.141111 0.155222,-0.1975554 0.05645,-0.056444 0.112889,-0.1128888 0.07055,-0.056444 0.02822,-0.1269999 -0.183444,-0.042333 -0.338666,0 -0.169333,0 -0.169333,-0.028222 0.126999,-0.042333 0.253999,-0.098778 0.04233,-0.014111 0.112889,-0.098778 0.08467,-0.098778 0.141111,-0.1128888 0.225778,-0.1552221 0.352778,-0.056444 0.564444,-0.042333 0.578555,-0.042333 0.183444,-0.141111 0.352777,-0.282222 0.127,-0.070555 0.211667,-0.1975554 0.112889,-0.070556 0.310444,-0.3386664 -0.01411,-0.056444 0.05644,-0.1128888 0.08467,-0.070556 0.02822,-0.1128888 -0.310445,-0.028222 -0.536222,0.014111 -0.141111,0 -0.366889,0.084667 -0.197555,0.070556 -0.282222,0.084667 -0.296333,0.084667 -0.592666,0.1693332 -0.155222,0.028222 -0.324555,0.042333 -0.141111,0.070555 -0.296333,0.1269999 -0.141111,0.056444 -0.296334,0.098778 -0.141111,0.042333 -0.296333,0.084667 -0.268111,0.1269999 -0.493888,0.141111 -0.381,0.042333 -0.733777,-0.014111 -0.04233,0 -0.09878,-0.070556 -0.04233,-0.056444 -0.08467,-0.028222 0.04233,0.1975554 0.07056,0.423333 0.04233,0.1693332 0.08467,0.3386664 -0.01411,0.141111 -0.02822,0.2681109 -0.01411,0.1975554 -0.112889,0.4374441 -0.155222,0.282222 -0.282222,0.5785551 0,0.084667 -0.112888,0.2116665 -0.112889,0.1128888 -0.127,0.1834443 -0.02822,0.070556 -0.141111,0.1128888 -0.08467,0.028222 -0.112889,0.056444 -0.07056,0.028222 -0.155222,0.098778 -0.08467,0.056444 -0.155222,-0.014111 0.07056,-0.2116665 -0.05645,-0.2539998 -0.05644,-0.098778 -0.169333,-0.1269999 -0.07055,0.014111 -0.09878,-0.042333 0,-0.014111 -0.02822,-0.1269999 Q 15.282304,4.8730379 15.19764,4.6754828 15.16942,4.4779274 15.14119,4.280372 15.16941,4.1533721 15.18352,4.0122611 15.1553,3.8993723 15.25408,3.7723724 q 0.07056,-0.098778 0.08467,-0.141111 0.04233,-0.056444 0.112889,-0.2116665 0.08467,-0.1834443 0.155222,-0.2539998 0.112889,-0.2963331 0.211666,-0.5926662 0.02822,-0.056444 0.02822,-0.1693332 0,-0.1269999 0.02822,-0.1693332 0,-0.084667 0,-0.1834443 -0.04233,-0.141111 -0.09878,-0.2398887 0.338666,0.028222 0.493888,0.1834443 0.141111,0.084667 0.211667,0.2398887 0.08467,0.141111 0.169333,0.282222 0.141111,0.084667 0.282222,0.1693332 0.197556,0 0.804333,-0.1269999 l 0.310444,-0.2963331 q 0.02822,-0.042333 0.09878,-0.423333 0.02822,-0.1834443 0.05644,-0.3809997 0.05645,-0.1975555 0.09878,-0.3951109 -0.02822,-0.0846666 -0.08467,-0.0846666 -0.07055,-0.0141111 -0.127,-0.0282222 -0.01411,-0.0141111 -0.09878,-0.0141111 -0.07056,0 -0.07056,-0.0423333 0.112889,-0.0141111 0.225778,-0.0423333 0.05644,-0.0846666 0.112889,-0.1552221 0.05644,-0.0846666 0.155222,-0.0987777 0.169333,-0.0846666 0.409222,-0.0705555 z M 30.973865,7.2860315 h 0.02822 q 0.02822,0.1269999 0.04233,0.2398887 0.04233,0.141111 0.04233,0.3104442 -0.08467,0.070556 -0.05645,0.2681109 0.01411,0.141111 -0.01411,0.2116665 0.01411,0.1128888 0.01411,0.2257776 -0.05644,0.1128889 0,0.268111 -0.04233,0.141111 0,0.3245553 -0.02822,0.2398887 -0.127,0.4656663 -0.07055,0.1834443 -0.141111,0.3668886 0.01411,0.042333 0.04233,0.028222 0.05644,-0.014111 0.09878,-0.042333 0.02822,-0.042333 0.05645,-0.028222 0.04233,0.042333 0.01411,0.098778 -0.01411,0.268111 -0.127,0.522111 0.01411,0.09878 -0.04233,0.141111 -0.07056,0.04233 -0.127,0.08467 -0.169333,-0.02822 -0.324556,-0.211666 Q 30.11308,10.27759 30.084858,10.249368 29.873199,10.150585 29.76031,9.9671406 29.647421,9.7695852 29.520422,9.600252 29.322866,9.4873632 29.449866,9.3039189 q 0.08467,-0.2398887 0.239889,-0.4515552 0,-0.1693332 -0.01411,-0.3386665 0,-0.056444 -0.01411,-0.098778 -0.01411,-0.056444 0.02822,-0.070555 0,0.014111 0.112889,0.2963332 0.08467,0.1693332 0.239888,0.3386664 0.211667,-0.1693332 0.338667,-0.3951109 0.141111,-0.2398887 0.282222,-0.4515552 0.112888,-0.282222 0.225777,-0.564444 0.02822,-0.1552221 0.08467,-0.282222 z m 4.529663,-0.3951108 q -0.09878,0 -0.239889,0.056444 -0.169333,-0.042333 -0.225777,0.141111 0,0.141111 -0.05644,0.2681109 -0.155222,0.3951108 -0.268111,0.5362218 -0.04233,0.1128888 -0.02822,0.2116665 0.310444,0.282222 0.620889,0.550333 0.07055,-0.042333 0.08467,-0.1128889 0.01411,-0.070555 0.05644,-0.1269999 0.07056,-0.282222 0.127,-0.5785551 0.04233,-0.2539998 0.126999,-0.4797774 0.05645,-0.2398887 0.04233,-0.4515552 -0.09878,-0.084667 -0.239889,-0.014111 z m 1.735665,-0.141111 q -0.282222,-0.014111 -0.606777,0.056444 -0.09878,0.042333 -0.09878,0.1552221 -0.01411,0.1128888 -0.05644,0.1975554 0.01411,0.056444 -0.02822,0.141111 -0.05644,0.1269999 -0.02822,0.1975554 0.211666,0.1269999 0.409221,0.2398887 0.112889,0.1128888 0.338667,0.2398887 0.239889,0.1269999 0.338666,0.2257776 0.05645,-0.028222 0.08467,-0.1269999 0.02822,-0.098778 0.05644,-0.1269999 0.05644,-0.3527775 0.09878,-0.7196661 0.01411,-0.1975554 -0.127,-0.3668886 -0.225778,-0.1693332 -0.381,-0.1128888 z m -1.608665,-1.41111 h -0.02822 q -0.296333,0.028222 -0.423333,0.098778 -0.112889,-0.028222 -0.197556,0.042333 -0.08467,0.056444 -0.08467,0.1693332 0.09878,0.098778 0.239888,0.1834443 0.127,0.084667 0.155223,0.2398887 -0.04233,0.1975554 -0.09878,0.3809997 -0.09878,0.141111 0,0.2539998 l 0.282222,-0.070556 q 0.183444,-0.056444 0.352777,-0.1128888 0.04233,-0.2539998 0.07056,-0.5221107 0,-0.1128888 0,-0.2398887 0,-0.2116665 -0.01411,-0.2398887 0.01411,-0.098778 -0.08467,-0.1693332 -0.08467,-0.070556 -0.169333,-0.014111 z M 28.532645,4.7601446 q 0.04233,0.070555 0.08467,0.141111 0.183444,0.141111 0.352778,0.2681109 0.08467,0.098778 0.423333,0.1269999 0.620888,0.084667 0.874888,0.3245553 0.07055,0.014111 0.05644,0.1128888 -0.01411,0.084667 0.04233,0.1269999 0.01411,0.042333 0.09878,0.141111 0.112889,0.1269999 0.09878,0.2257776 -0.02822,0.028222 0.01411,0.098778 0.02822,0.042333 0.02822,0.070556 -0.197555,0 -0.366888,0.070556 -0.05645,0.070556 -0.155222,0.042333 -0.141111,0.098778 -0.254,0.4092219 -0.02822,0.014111 -0.04233,0 0,-0.056444 0.02822,-0.1269999 -0.01411,-0.1128888 0.01411,-0.2116665 0.01411,-0.098778 -0.07056,-0.1693332 -0.155222,0 -0.268111,-0.070556 -0.112888,-0.070556 -0.225777,-0.1269999 -0.04233,-0.070556 -0.254,-0.2681109 Q 28.8572,5.7902549 28.814867,5.6773661 28.589089,5.3951441 28.6032,5.1129221 28.504422,4.8307001 28.532645,4.7601446 Z m 6.462883,-1.1712213 q -0.04233,-0.014111 -0.07055,0.028222 -0.112889,0 -0.310444,0.084667 -0.183445,0.014111 -0.338667,0.070555 -0.141111,0.056444 -0.282222,0.098778 -0.09878,0.042333 -0.09878,0.141111 -0.01411,0.084667 -0.04233,0.1693332 0.01411,0.070555 -0.04233,0.2116665 -0.05644,0.1552221 -0.01411,0.2539998 -0.02822,0.056444 -0.02822,0.4092219 -0.04233,0.070555 -0.02822,0.141111 0.01411,0.098778 0.09878,0.1128888 0.268111,-0.028222 0.522111,-0.070556 0.112889,-0.028222 0.225778,-0.042333 0.126999,0 0.225777,-0.084667 0.04233,-0.4092219 0.112889,-0.7761105 0.05644,-0.1552221 0.127,-0.6491106 0.01411,-0.042333 0,-0.084667 -0.02822,-0.028222 -0.05644,-0.014111 z M 30.282421,2.4318131 q 0.07056,-0.014111 0.155222,0.028222 0.282222,0.070556 0.550333,0.141111 0.08467,0.042333 0.239889,0.056444 0.211666,0.014111 0.282222,0.056444 0.08467,0.084667 0.183444,0.1552221 0.112889,0.070556 0.141111,0.1975554 0.04233,0.042333 0.09878,0.2398887 -0.04233,0.098778 -0.01411,0.2398887 0.02822,0.1269999 -0.05645,0.2257776 0,0.098778 -0.127,0.1269999 -0.04233,-0.014111 -0.09878,0.028222 -0.08467,0.042333 -0.112889,0.028222 -0.127,-0.042333 -0.211667,-0.056444 -0.183444,0.1269999 -0.253999,0.1269999 -0.183445,0.098778 -0.296334,-0.028222 -0.04233,0 -0.112888,-0.056444 -0.07056,-0.056444 -0.112889,-0.042333 -0.08467,0.028222 -0.141111,-0.042333 -0.04233,-0.028222 -0.09878,-0.014111 -0.05644,0 -0.05644,-0.042333 0.338666,-0.1269999 0.338666,-0.3668886 -0.141111,-0.1834443 -0.381,-0.3104442 -0.183444,-0.1693332 -0.380999,-0.2398887 -0.01411,-0.141111 0.141111,-0.2539998 0.04233,-0.1128888 0.141111,-0.141111 0.09878,-0.028222 0.183444,-0.056444 z m 5.037663,-1.65099876 q 0.197555,0.0141111 0.620888,0.0987777 0.127,0.0282222 0.366889,0.18344426 0.169333,0.1128888 0.268111,0.1552221 0.08467,0.098778 0.169333,0.1975554 0.07055,0.1128889 0.07055,0.2539999 -0.04233,0.056444 -0.112888,0.1128888 -0.07056,0.056444 -0.08467,0.141111 -0.04233,0.1693332 -0.09878,0.3245553 -0.04233,0.042333 -0.07055,0.2257776 -0.04233,0.1128888 -0.09878,0.3386664 -0.01411,0.070555 -0.05644,0.141111 -0.05645,0.070555 0,0.1552221 0.02822,-0.014111 0.225777,-0.014111 0.08467,-0.1269999 0.225778,-0.098778 0.127,0.014111 0.282222,0.014111 0.225777,0.042333 0.437444,0.070556 0.08467,-0.014111 0.381,0.084667 0.07055,0.028222 0.155222,0.070556 0.08467,0.042333 0.09878,0.141111 0.05644,0.1552221 0.01411,0.2963331 0.02822,0.084667 -0.07056,0.2398887 -0.02822,0.084667 -0.09878,0.070556 -0.08467,-0.028222 -0.155222,-0.014111 -0.127,-0.084667 -0.268111,-0.084667 -0.141111,-0.070555 -0.52211,-0.1975554 -0.183445,-0.042333 -0.366889,-0.098778 -0.02822,-0.014111 -0.239889,-0.056444 -0.08467,-0.014111 -0.169333,-0.014111 -0.09878,0 -0.141111,0.084667 -0.141111,0.2539998 -0.296333,0.4938885 -0.01411,0.042333 -0.310444,0.4797774 -0.141111,0.2257776 -0.282222,0.4374441 0.02822,0.042333 0.127,0.014111 0.07055,-0.028222 0.127,0 0.366888,-0.042333 0.719666,-0.098778 0.155222,-0.042333 0.310444,-0.084667 0.112889,-0.098778 0.381,-0.098778 0.239888,-0.042333 0.578555,-0.014111 0.183444,0 0.268111,0.028222 0.112888,0 0.239888,0.042333 0.112889,0.070555 0.211667,0.141111 0.155222,0.070556 0.09878,0.2539998 l -0.01411,0.3668886 q 0,0.098778 -0.07056,0.084667 -0.08467,0 -0.141111,-0.014111 Q 37.718971,5.6068106 37.45086,5.522144 37.098082,5.4092552 36.731194,5.3386997 q -0.127,-0.014111 -0.268111,-0.042333 -0.08467,0 -0.169333,-0.014111 -0.08467,0 -0.09878,0.070556 0.155222,0.1128888 0.296333,0.2116665 0.07056,0.028222 0.112889,0.1269999 0.04233,0.084667 0.08467,0.1269999 0.01411,0.084667 -0.04233,0.2257776 -0.07055,0.1693332 -0.02822,0.282222 -0.01411,0.098778 0.07055,0.098778 0.09878,0 0.183445,-0.014111 0.197555,-0.056444 0.395111,-0.1128888 0.08467,-0.028222 0.183444,-0.056444 0.08467,-0.042333 0.183444,0.014111 0.254,0.028222 0.508,0.1269999 0.338666,0.141111 0.479777,0.4938885 0.02822,0.1269999 0.05644,0.2539998 -0.01411,0.1975554 0.04233,0.423333 -0.05644,0.141111 -0.01411,0.3245553 -0.02822,0.423333 -0.08467,0.5221107 -0.07055,0.141111 -0.09878,0.3104443 -0.07056,0.070556 -0.07056,0.2116665 -0.04233,0.1552221 -0.09878,0.2963331 0.01411,0.098778 -0.08467,0.2257776 -0.08467,0.1269999 -0.09878,0.1834443 -0.155222,0.2539998 -0.296333,0.5080002 -0.127,0.197555 -0.395111,0.395111 -0.183444,0.155222 -0.352777,0.253999 -0.169334,0.02822 -0.296334,0.08467 -0.08467,0.02822 -0.183444,0.04233 -0.141111,0.01411 -0.282222,0.02822 -0.155222,-0.02822 -0.268111,-0.126999 0.01411,-0.09878 -0.112889,-0.225778 -0.225777,-0.155222 -0.324555,-0.310444 -0.08467,-0.02822 -0.155222,-0.169333 -0.268111,-0.1128896 -0.183444,-0.2257784 0.02822,-0.070555 -0.09878,-0.1975554 0.07056,-0.042333 0.169333,0.028222 0.635,0.098778 0.917222,0.056444 0.211666,0 0.409222,-0.056444 0.169333,-0.1834443 0.338666,-0.3809997 0.112889,-0.1552221 0.07056,-0.282222 -0.127,-0.042333 -0.197556,-0.141111 -0.08467,-0.098778 -0.169333,-0.1693332 -0.141111,-0.1411111 -0.409222,-0.5785552 -0.02822,-0.070556 -0.08467,-0.141111 -0.04233,-0.070556 -0.112888,-0.014111 -0.141111,0.2681109 -0.282222,0.5221107 -0.07056,0.042333 -0.112889,0.1552222 -0.02822,0.098778 -0.08467,0.141111 -0.08467,0.084667 -0.169333,0.1693332 -0.04233,0.1269999 -0.183444,0.2398887 -0.07056,0.098778 -0.169333,0.056444 -0.09878,-0.042333 -0.169334,-0.098778 -0.02822,-0.056444 -0.07055,-0.056444 -0.07056,-0.014111 -0.05645,-0.070556 -0.112888,-0.1834443 -0.239888,-0.3809997 -0.04233,-0.070556 -0.08467,-0.1411111 -0.02822,-0.084667 -0.112889,-0.056444 -0.09878,0.1975555 -0.225777,0.3951109 -0.02822,0.084667 -0.183445,0.2681109 -0.126999,0.141111 -0.169333,0.2398887 -0.09878,0.056444 -0.183444,0.1552221 -0.155222,0.1693332 -0.239889,0.1975554 -0.02822,0.042333 -0.112889,0.056444 -0.112888,0.028222 -0.112888,0.098778 0,0.3104439 0,0.6067769 -0.08467,0.02822 -0.08467,0.155222 0,0.127 -0.05644,0.155223 -0.08467,0.01411 -0.155222,0.05644 -0.07056,0.04233 -0.141111,-0.01411 -0.08467,0.04233 -0.127,-0.09878 0,-0.05644 -0.09878,-0.09878 -0.08467,-0.04233 -0.08467,-0.09878 -0.268111,-0.381 -0.380999,-0.8043329 -0.112889,-0.1693332 -0.02822,-0.3245553 0,-0.1552221 -0.01411,-0.3245553 L 32.003975,8.3866973 Q 31.989864,8.3584751 31.947531,8.1468086 31.905198,7.8786977 31.862864,7.5964757 31.67942,7.1166983 31.651198,7.074365 q -0.01411,-0.042333 -0.08467,-0.084667 -0.07056,-0.042333 -0.05644,-0.084667 0.04233,-0.028222 0.112889,0.014111 0.08467,0.042333 0.141111,0.028222 0.126999,0.070556 0.26811,0.098778 0.155223,0.042333 0.268111,0.1693332 0.08467,0.042333 0.141111,0.1552221 0.05644,0.098778 0.169334,0.056444 0.01411,0 0.02822,0 -0.01411,0.028222 -0.05645,0.098778 0.211667,0.2116665 0.282222,0.4938885 0.02822,0.042333 0.02822,0.1269999 0,0.098778 0.04233,0.1552221 0.02822,0.2963331 0.08467,0.409222 0.05645,0.2539998 0.08467,0.3951108 0.01411,0.056444 0,0.141111 -0.01411,0.084667 0.08467,0.1128888 0.253999,-0.2681109 0.409222,-0.6349995 0.08467,-0.2116666 0.183444,-0.3951109 0,-0.056444 0.05644,-0.1552221 0.07056,-0.141111 0.05645,-0.2116665 0.07055,-0.1693332 0.141111,-0.3527775 0.01411,-0.1693332 0.09878,-0.3104442 0.04233,-0.056444 0,-0.098778 -0.04233,-0.042333 -0.08467,0.014111 -0.296333,0.056444 -0.606778,0.1128888 -0.239888,0.028222 -0.479777,0.056444 -0.169333,0.070555 -0.225778,0.028222 0.112889,-0.070556 0.282222,-0.098778 0.05645,-0.028222 0.324556,-0.098778 0.239888,-0.1269999 0.507999,-0.1693332 0.197556,-0.056444 0.395111,-0.1269999 0.127,-0.3527775 0.155222,-0.4515552 0.07056,-0.3104442 0.07056,-0.6349995 -0.197556,-0.2257776 -0.296333,-0.2257776 -0.08467,0.028222 -0.183445,0.028222 -0.09878,0.014111 -0.141111,0.084667 0.01411,0.028222 0,0.042333 -0.05644,0.014111 -0.08467,-0.042333 -0.127,-0.014111 -0.211667,0.070556 -0.225777,0.084667 -0.451555,0.1693332 -0.254,0.1269999 -0.508,0.2398887 -0.239888,0.084667 -0.479777,0.1693332 -0.02822,0.014111 -0.324555,0.056444 -0.05645,0 -0.127,-0.014111 -0.211667,-0.042333 -0.381,-0.141111 -0.169333,-0.1128888 -0.352777,-0.1834443 -0.07056,0 -0.07056,-0.056444 -0.01411,-0.070555 0.04233,-0.084667 0.08467,0.056444 0.197556,0.098778 0.310444,-0.084667 0.620888,-0.1834443 0.112889,-0.028222 0.211667,-0.056444 0.380999,-0.1975554 0.77611,-0.2398887 0.366889,-0.084667 0.719666,-0.1693332 0.112889,-0.028222 0.07056,-0.1128888 -0.05645,-0.098778 -0.07056,-0.1693332 -0.141111,-0.3386664 -0.211666,-0.8748882 -0.04233,-0.084667 -0.09878,-0.056444 -0.05644,0.042333 -0.112889,0.070555 -0.169333,0.098778 -0.338666,0.141111 -0.338666,0 -0.677333,0 -0.04233,-0.028222 -0.112889,-0.028222 -0.05644,0 -0.05644,-0.042333 0.183444,-0.028222 0.324555,-0.084667 0.423333,-0.1269999 0.832555,-0.2681109 0.02822,-0.028222 0.09878,-0.056444 0.08467,-0.028222 0.112889,-0.070555 0,-0.3668886 -0.05644,-0.5079996 0.01411,-0.084667 -0.02822,-0.5926662 -0.04233,-0.1128888 -0.02822,-0.2398887 -0.02822,-0.2257776 -0.09878,-0.423333 -0.141111,-0.2681109 -0.381,-0.3809997 -0.05644,-0.042333 -0.126999,-0.084667 -0.07056,-0.028222 -0.07056,-0.084667 0.197555,-0.042333 0.409222,-0.014111 0.141111,-0.014111 0.268111,0.098778 0.04233,0.014111 0.423333,0.1834443 0.155222,0.1269999 0.268111,0.3104442 0.09878,0.1128888 0.155222,0.5785551 -0.02822,0.1128888 0,0.2539998 0,0.1693332 0,0.3386664 0,0.1552221 0,0.3104442 0.02822,0.1269999 0.169333,0.070556 0.211667,-0.084667 0.437444,-0.141111 0.155222,-0.028222 0.296333,-0.056444 0.141111,-0.042333 0.282222,-0.098778 0.08467,-0.2257776 0.127,-0.4797774 0.09878,-0.4938885 0.141111,-0.6067773 0,-0.2257776 0.05644,-0.423333 0.04233,-0.2539998 0.07056,-0.5221108 0.01411,-0.1269999 -0.141111,-0.1693332 -0.155222,-0.042333 -0.183444,-0.098778 -0.07056,-0.21166646 0.141111,-0.28222196 z M 48.175297,8.7112527 q -0.155222,-0.028222 -0.169333,0.070556 0.127,0.042333 0.282222,-0.014111 0.02822,-0.056444 -0.02822,-0.070555 -0.05644,-0.014111 -0.08467,0.014111 z m -0.239889,-1.255888 q -0.366888,0.056444 -0.536222,0.1128888 h -0.493888 q -0.08467,-0.028222 -0.141111,0.014111 -0.07056,0.056444 -0.01411,0.1269999 -0.02822,0.141111 -0.04233,0.2963331 0,0.1552221 -0.112889,0.282222 -0.01411,0.042333 -0.07056,0.098778 -0.04233,0.042333 0.02822,0.084667 0.155223,-0.028222 0.310445,-0.056444 0.380999,-0.042333 0.77611,-0.098778 0.04233,-0.028222 0.127,-0.028222 0.141111,0 0.183444,-0.056444 0.04233,-0.3104442 0.07056,-0.6208884 0,-0.070556 -0.01411,-0.1128888 -0.02822,-0.070555 -0.07056,-0.042333 z M 46.750076,6.0724769 q -0.07056,-0.014111 -0.112889,0.028222 -0.04233,0.056444 0,0.1128888 0.01411,0.1269999 0.01411,0.2681109 0.04233,0.282222 0.07056,0.564444 -0.01411,0.098778 0,0.1552221 0.02822,0.084667 0.112888,0.042333 0.310445,-0.098778 0.606778,-0.1975554 0.05644,-0.056444 0.211666,-0.070556 0.09878,-0.014111 0.169333,-0.042333 0.239889,0 0.225778,-0.141111 0,-0.098778 -0.01411,-0.2116665 0.02822,-0.1834443 0.04233,-0.3668886 0.01411,-0.084667 -0.07055,-0.1128888 -0.09878,-0.028222 -0.155222,0.014111 -0.409222,0 -0.762,-0.056444 -0.310444,0 -0.338666,0.014111 z m 2.469442,-1.5239988 q -0.352777,0 -0.52211,0.098778 -0.282222,0.070556 -0.536222,0.1693332 -0.05645,0.028222 -0.02822,0.070556 0.05644,0.028222 0.09878,0.070556 0.324556,0.098778 0.437445,0.4374441 v 0.7619994 q -0.02822,0.5362218 -0.05645,0.6349995 -0.02822,0.423333 -0.09878,0.6208884 -0.02822,0.282222 -0.09878,0.4092219 -0.07056,0.1834443 -0.141111,0.3527775 0,0.056444 0.02822,0.056444 0.09878,0.014111 0.197555,0.014111 0.08467,0.014111 0.155222,0.014111 l 0.874889,0.028222 q 0.04233,-0.042333 0.07055,-0.014111 0.02822,0.042333 0.07056,0.084667 0.141111,-0.084667 0.39511,-0.1128888 0.05645,-0.028222 0.254,-0.056444 0.08467,0 0.127,-0.070555 0.04233,-0.070555 0.08467,-0.1269999 0.169333,-0.4515552 0.296333,-0.6491106 0.112889,-0.282222 0.211666,-0.5785551 0.08467,-0.2398887 0.169334,-0.4938885 0.01411,-0.2539998 0.112888,-0.5079996 0.04233,-0.3386664 0.08467,-0.6914439 0.04233,-0.098778 0,-0.1834443 -0.04233,-0.098778 -0.141111,-0.084667 -0.169333,-0.070556 -0.324555,-0.084667 -0.05645,-0.028222 -0.183445,-0.028222 -0.141111,0 -0.197555,-0.056444 -0.155222,-0.028222 -0.282222,-0.014111 -0.183444,-0.056444 -0.550333,-0.056444 -0.141111,-0.014111 -0.296333,-0.028222 -0.09878,-0.014111 -0.211667,0.014111 z M 45.889299,2.2201466 q 0.141111,0.141111 0.239888,0.1693332 0.02822,0.056444 0.169334,0.1552221 0.141111,0.1128888 0.197555,0.2116665 -0.02822,0.141111 -0.05644,0.2681109 0,0.1269999 -0.05645,0.3809997 -0.197555,0.3386664 -0.225777,0.5362218 -0.127,0.098778 -0.169334,0.3245553 -0.324555,0.3668886 -0.64911,0.7196661 -0.197556,0.070556 -0.381,0.1693332 -0.05644,0.098778 -0.197555,0.098778 -0.05644,-0.042333 -0.09878,0.042333 -0.02822,0.056444 -0.05644,0.056444 -0.155222,-0.014111 -0.268111,0.070555 -0.04233,0.014111 -0.09878,0.042333 -0.05644,0.028222 -0.02822,0.084667 0.07055,0.014111 0.197555,0.1552221 0.09878,0.1128888 0.183445,0.1552221 0.08467,0.098778 0.225777,0.3809997 -0.02822,0.056444 0.04233,0.141111 0.05644,0.070556 0.05644,0.1128888 0.01411,0.014111 0.01411,0.098778 0,0.098778 0.04233,0.141111 0.04233,0.2539998 0.08467,0.5079996 0.02822,0.084667 0.01411,0.2116665 -0.05644,0.1128888 -0.02822,0.2963331 0.02822,0.056444 0.01411,0.1693332 -0.01411,0.1269999 0,0.1693332 -0.02822,0.1834443 -0.07056,0.3527775 0.02822,0.1128888 -0.02822,0.3809998 -0.04233,0.028222 0,0.070556 0.04233,0.042333 0.08467,0.014111 0.183444,-0.056444 0.352777,-0.1128888 0.169333,-0.042333 0.324556,-0.084667 0.211666,-0.028222 0.380999,-0.1411111 -0.01411,-0.056444 -0.01411,-0.3809997 0,-0.1552221 0,-0.3245553 0.02822,-0.1975554 0.04233,-0.4092219 0,-0.098778 0,-0.2116665 0,-0.2681109 0.01411,-0.2963331 -0.02822,-0.1552221 -0.01411,-0.2963331 -0.04233,-0.423333 -0.04233,-0.4374441 0,-0.2116665 -0.04233,-0.3668886 -0.04233,-0.2681109 -0.09878,-0.5503329 0,-0.014111 0,-0.028222 -0.05644,-0.1128888 0,-0.1269999 0.169333,0.084667 0.324555,0.1552221 0.183445,0.042333 0.239889,0.2681109 -0.01411,0.1269999 0.04233,0.4092219 0.04233,0.084667 0.127,0.056444 0.07056,-0.014111 0.155222,-0.028222 0.141111,-0.070555 0.310445,-0.1269999 0.05644,-0.084667 0.141111,-0.098778 0.09878,-0.014111 0.169333,-0.056444 0.211666,-0.014111 0.423333,-0.070555 0.127,0.070555 0.197555,-0.070556 -0.02822,-0.1552221 -0.05644,-0.3104442 -0.05644,-0.2681109 -0.296333,-0.3386664 -0.155222,-0.042333 -0.282222,0.014111 -0.282222,0 -0.522111,0.042333 -0.254,0.028222 -0.465666,0 -0.155222,0.014111 -0.310444,0.014111 -0.127,0.028222 -0.268111,0.042333 -0.05645,-0.014111 -0.127,0 -0.07056,0.014111 -0.07056,-0.042333 0.239889,-0.042333 0.465667,-0.084667 0.112888,-0.042333 0.578555,-0.1128888 0.169333,-0.056444 0.536221,-0.1128888 0.225778,-0.084667 0.479778,-0.1269999 0.197555,-0.042333 0.381,-0.098778 0.141111,-0.070556 0.310444,-0.1128888 0.296333,-0.084667 0.620888,-0.141111 0.211667,-0.098778 0.451555,-0.1128888 0.324556,-0.028222 0.649111,-0.056444 0.07056,-0.028222 0.296333,-0.028222 0.183444,0 0.282222,-0.042333 0.112889,0.014111 0.239889,-0.042333 0.155222,-0.070555 0.225777,-0.056444 0.211667,0.042333 0.409222,0.1269999 0.04233,0.042333 0.211667,0.084667 0.155222,0.042333 0.239889,0.1128888 0.169333,0.056444 0.380999,0.423333 0.01411,0.1693332 0.112889,0.3386664 -0.01411,0.056444 0.02822,0.1693332 0.04233,0.1128888 0.01411,0.1975554 -0.01411,0.1128888 -0.08467,0.1975554 0.07055,0.042333 0.02822,0.1552221 -0.127,0.1269999 -0.08467,0.1975554 -0.07055,0.3951108 -0.07055,0.4797774 -0.04233,0.2116665 -0.09878,0.4092219 -0.05644,0.028222 -0.04233,0.1128888 0.01411,0.084667 -0.01411,0.1128888 -0.127,0.5221107 -0.183445,0.6914439 0,0.2116665 -0.112888,0.4092219 -0.07056,0.1693332 -0.239889,0.5079996 -0.04233,0.084667 -0.155222,0.2398888 -0.141111,0.1975554 -0.183444,0.2963331 -0.127,0.141111 -0.197556,0.3245553 -0.07055,0.070555 -0.423333,0.3245553 -0.127,0.056444 -0.225777,0.056444 -0.07056,0 -0.155223,-0.042333 -0.09878,-0.056444 -0.155222,-0.042333 -0.169333,-0.070556 -0.338666,-0.056444 -0.127,-0.056444 -0.268111,-0.1128888 -0.08467,-0.098778 -0.197555,-0.1693332 -0.08467,0.014111 -0.211667,-0.084667 -0.09878,-0.084667 -0.169333,-0.070555 -0.141111,0 -0.268111,-0.042333 -0.141111,0.028222 -0.211666,-0.028222 -0.04233,-0.056444 -0.169334,-0.056444 -0.127,0 -0.169333,-0.070556 -0.02822,-0.1552221 -0.169333,-0.1128888 -0.112889,0.014111 -0.225778,0.014111 -0.08467,-0.042333 -0.141111,-0.070555 0,-0.014111 0.02822,-0.028222 0.183445,0.014111 0.310445,-0.070556 -0.07056,-0.084667 -0.310445,-0.056444 -0.155222,0.028222 -0.310444,0.042333 -0.296333,0.014111 -0.578555,0.070555 -0.127,0.042333 -0.254,0.084667 -0.112888,-0.014111 -0.253999,0.098778 -0.141111,-0.084667 -0.296334,0 -0.253999,0.084667 -0.52211,0.1693332 -0.268111,0.028222 -0.508,0.098778 -0.183444,0.098778 -0.381,0.098778 -0.239888,-0.014111 -0.409221,-0.098778 -0.127,-0.028222 -0.183445,-0.084667 0.127,0 0.239889,-0.070556 -0.01411,-0.056444 -0.127,-0.2398887 L 43.941967,8.4572528 q -0.01411,-0.2116665 -0.04233,-0.4374441 0.01411,-0.1552221 0.02822,-0.3245553 0,-0.4515552 -0.08467,-0.8325549 Q 43.814967,6.6651431 43.7303,6.3970322 43.433967,6.0301436 43.236412,5.6491439 43.165856,5.3245886 42.925968,5.239922 42.883638,5.197589 42.827188,5.2117 q -0.05644,0.014111 -0.05644,-0.042333 0.04233,-0.014111 0.08467,-0.084667 0.04233,-0.070556 0.09878,-0.084667 0.239889,0.070556 0.479777,0.141111 0.155222,0.070556 0.310445,0.141111 0.05644,0 0.155222,0.070556 0.09878,0.084667 0.169333,0.084667 Q 44.3653,5.239922 44.478189,5.2116998 44.887411,4.9012556 45.169633,4.5767003 45.39541,4.2380339 45.621188,3.8852564 45.762299,3.54659 45.889299,3.1938125 q 0.02822,-0.141111 0.05644,-0.2963331 0.02822,-0.1834443 0,-0.3386664 -0.02822,-0.1975554 -0.05644,-0.3386664 z M 48.85263,1.1759251 q 0.07055,0 0.141111,0.070556 0.04233,0.028222 0.09878,-0.014111 0.05644,-0.042333 0.09878,-0.028222 0.04233,0.056444 0.155222,0.056444 0.09878,0 0.141111,0.042333 0.268111,0.042333 0.522111,0.084667 0.268111,0.070556 0.324555,0.1552222 -0.01411,0.098778 -0.05644,0.1975554 -0.05644,0.098778 -0.01411,0.2116665 0.07055,0.070556 -0.127,0.2257776 -0.127,-0.014111 -0.479777,-0.1834443 -0.239889,-0.056444 -0.296334,-0.098778 -0.211666,-0.014111 -0.423333,-0.1128888 -0.169333,-0.056444 -0.324555,-0.028222 -0.08467,-0.028222 -0.324555,-0.028222 -0.169333,0 -0.268111,-0.028222 -0.09878,0 -0.197556,-0.014111 -0.211666,-0.028222 -0.39511,0 -0.225778,0.042333 -0.465667,0.070556 -0.39511,0.028222 -0.747888,0.1269999 -0.649111,0.1693332 -0.77611,0.2398887 -0.296334,0.042333 -0.451556,0.1552221 -0.268111,0.042333 -0.550333,0.070556 -0.01411,0 -0.366888,0.042333 -0.07056,-0.042333 -0.239889,0.028222 l -0.211666,-0.070555 q -0.09878,-0.014111 -0.155222,-0.070556 0,-0.028222 0.04233,-0.042333 0.310444,0 0.395111,-0.028222 0.05644,0.014111 0.197555,-0.028222 0.09878,-0.042333 0.169333,-0.028222 0.183445,0 0.352778,-0.056444 0.08467,-0.028222 0.493888,-0.098778 0.141111,-0.070556 0.451555,-0.1269999 0.606778,-0.1552221 0.691444,-0.1834443 0.409222,-0.070556 0.846666,-0.1128888 0.197556,-0.042333 0.381,-0.084667 0.197555,-0.028222 0.395111,-0.056445 0.112889,-0.028222 0.705555,-0.056444 0.112889,0.014111 0.155222,-0.056444 0.04233,-0.084667 0.112889,-0.141111 z M 65.136828,8.062142 64.953383,8.076253 q -0.197555,0.042333 -0.409222,0.084667 -0.197555,0.056444 -0.39511,0.098778 -0.08467,0.014111 -0.08467,0.098778 0,0.084667 0,0.1693332 0,0.1128889 -0.01411,0.2116666 -0.02822,0.2681109 -0.07056,0.5221107 0.01411,0.056444 0.05645,0.042333 0.07055,-0.042333 0.155222,-0.056444 0.04233,-0.028222 0.451555,-0.141111 0.254,-0.084667 0.409222,-0.084667 0.07055,-0.028222 0.169333,-0.014111 0.112889,0.014111 0.127,-0.084667 0,-0.409222 -0.05644,-0.7619995 0.01411,-0.070556 -0.05644,-0.1128888 -0.05644,-0.028222 -0.09878,0.014111 z m -0.183445,-1.5381099 -0.08467,0.028222 q -0.155222,0.070555 -0.324556,0.098778 -0.09878,-0.014111 -0.183444,0.042333 -0.08467,0.070556 -0.08467,0.1693332 -0.01411,0.014111 -0.01411,0.070556 0,0.070556 -0.04233,0.070556 Q 64.163163,6.8344771 64.05027,6.6933661 63.909159,6.6369221 63.810381,6.820366 l 0.112889,0.2116665 q -0.01411,0.2257776 0.04233,0.4374441 0.02822,0.1975554 0.09878,0.2539998 0.183444,-0.042333 0.352777,-0.084667 0.183445,-0.141111 0.578556,-0.1128888 0.04233,-0.028222 0.126999,0 0.08467,0.028222 0.112889,0 0,-0.1834443 -0.01411,-0.3527775 -0.05644,-0.2540002 -0.112886,-0.508 -0.02822,-0.1693332 -0.155222,-0.141111 z M 63.528162,3.1514792 q -0.01411,0.056444 0.04233,0.042333 0.04233,-0.014111 0.02822,-0.042333 -0.02822,-0.042333 -0.07056,0 z m 0.508,-0.1693332 q -0.282222,0.028222 -0.381,0.1128888 -0.01411,0.056444 0.155222,0.084667 0.112889,0.056444 0.211667,0.028222 0.01411,0 0.07055,0.014111 0.05644,0 0.05644,-0.1552221 -0.01411,-0.141111 -0.112889,-0.084667 z m 3.640664,-0.7902216 0.155222,0.014111 q 0.268111,0.028222 0.352777,0.098778 0.09878,0.028222 0.09878,0.2539998 -0.05644,0.1128888 -0.05644,0.2539998 -0.01411,0.084667 -0.09878,0.1269999 -0.08467,0.028222 -0.155222,0.056444 Q 67.733274,2.9398129 67.479274,2.869257 67.309941,2.826924 67.126497,2.78459 66.886608,2.756368 66.674942,2.770479 66.632612,2.742257 66.533831,2.756368 q -0.07056,0.014111 -0.112889,-0.014111 -0.423333,0 -0.493889,0.028222 -0.155222,-0.028222 -0.197555,0.014111 -0.239889,-0.014111 -0.663222,0.042333 -0.197555,0 -0.352777,0.070555 -0.07056,0.042333 -0.09878,0.2398887 -0.04233,0.1975554 -0.04233,0.3951108 0.197555,0.056444 0.380999,0.1552221 0.183445,0.056444 0.366889,0.098778 0.254,0.098778 0.493888,0.2257776 0.225778,0.084667 0.790222,0.5079996 0.05644,0.084667 0.239889,0.1975554 0.155222,0.098778 0.225777,0.1834443 0.127,0.070556 0.324556,0.2681109 0.183444,0.1975554 0.282222,0.2539998 0.296333,0.141111 0.578555,0.3527775 0.183444,0.056444 0.366888,0.098778 0.296333,0.070556 0.592667,0.141111 0.183444,0.056444 0.366888,0.098778 l 0.592666,0.1693332 q 0.268111,0.1128888 0.522111,0.2257776 0.05644,0.028222 0.112889,0.070555 0.07055,0.042333 0.05644,0.1128888 -0.04233,0 -0.09878,0.084667 -0.07056,0.098778 -0.127,0.070556 -0.141111,0.028222 -0.296333,0.056444 -0.05644,-0.042333 -0.155223,0.014111 -0.05644,0.028222 -0.09878,0.028222 -0.197556,0.042333 -0.409222,0.084667 -0.112889,0.042333 -0.239889,0.084667 -0.183444,0.070555 -0.338666,0 -0.197556,-0.084667 -0.366889,-0.084667 -0.01411,0.1128888 0,0.2539998 -0.08467,0.070556 -0.127,0.1552221 -0.225777,-0.098778 -0.352777,0.070556 -0.183445,-0.1269999 -0.381,-0.2681109 Q 67.690937,7.074365 67.507492,6.9050318 67.324048,6.7498097 67.22527,6.5381432 66.928937,6.1994768 66.787826,5.945477 66.717271,5.7902549 66.505604,5.5362551 66.336271,5.3386997 66.293938,5.2681442 65.729494,4.5484781 65.658938,4.4779226 65.560161,4.4214782 65.447272,4.3085894 65.306161,4.1674784 65.235605,4.1392562 64.939272,3.9840341 64.628828,3.8147009 q -0.09878,-0.014111 -0.09878,0.056444 0,0.084667 -0.01411,0.141111 0,0.2539998 -0.01411,0.5079996 -0.01411,0.098778 0,0.2257776 0,0.3245553 0.01411,0.3809997 -0.02822,0.3104442 -0.05644,0.6208884 -0.01411,0.084667 0.05644,0.084667 0.08467,0 0.155222,-0.056444 0.211667,-0.1269999 0.451555,-0.1128888 0.112889,-0.014111 0.282222,0.070555 0.155223,0.084667 0.239889,0.084667 0.169333,0.070556 0.338667,0.1269999 0.225777,0.2681109 0.253999,0.3245553 0.01411,0.028222 0.08467,0.3809997 -0.02822,0.042333 0,0.141111 0.02822,0.084667 0,0.1269999 -0.01411,0.070556 0.04233,0.2398887 0.01411,0.2539998 0.05645,0.4938885 0.02822,0.3809997 0.01411,0.8043327 0.01411,0.2398888 0.01411,0.4656664 -0.01411,0.141111 -0.02822,0.282222 -0.02822,0.2116665 -0.07056,0.4092219 -0.01411,0.1975554 -0.169333,0.4797766 -0.01411,0.07056 -0.112889,0.197556 -0.08467,0.09878 -0.09878,0.169333 -0.02822,0.169333 -0.155222,0.169333 -0.07055,-0.02822 -0.183444,0.04233 -0.08467,0.05644 -0.155222,0.02822 -0.07056,-0.01411 -0.09878,-0.112889 -0.01411,-0.07056 -0.04233,-0.08467 -0.09878,-0.211666 -0.141111,-0.409222 -0.05644,-0.112888 -0.112889,-0.2257768 0.04233,-0.084667 -0.01411,-0.1975554 -0.05644,-0.1128888 -0.155222,-0.098778 -0.112889,0.042333 -0.239889,0.084667 -0.211666,0.014111 -0.409222,0.084667 -0.268111,0.070556 -0.550333,0.1269999 -0.09878,-0.014111 -0.183444,0.042333 -0.05644,0.084667 -0.211666,0.028222 -0.225778,-0.1693332 -0.381,-0.3809997 -0.05644,0.028222 -0.09878,-0.042333 -0.02822,-0.070556 0.01411,-0.1128888 -0.04233,-0.2539998 -0.08467,-0.5221107 -0.02822,-0.1128888 -0.05644,-0.2116665 -0.02822,-0.1128889 -0.127,-0.1552222 -0.02822,-0.084667 0.08467,-0.2116665 0.09878,-0.1128888 0.09878,-0.1834443 0.02822,-0.4797774 0.01411,-0.6067773 0,-0.3104442 -0.01411,-0.6349995 -0.01411,-0.2681109 0,-0.5079996 0.01411,-0.1269999 -0.05644,-0.1975554 -0.07055,-0.070556 -0.09878,-0.1552221 -0.04233,-0.042333 -0.02822,-0.084667 0.01411,-0.028222 0.08467,-0.014111 0.296333,0.098778 0.381,0.1552221 0.09878,0.028222 0.352777,0.2539998 0.05645,0.056444 0.09878,0.141111 0.05644,0.070556 0.141111,0.056444 0.02822,-0.056444 0.141111,-0.1128888 0.127,-0.070556 0.141111,-0.1552221 -0.07056,-0.070556 -0.02822,-0.2539998 0.02822,-0.1269999 0,-0.1975554 0.01411,-0.056444 0.07055,-0.028222 0.05645,0.070556 0.112889,0 l 0.01411,-0.3386664 q 0,-0.2681109 0,-0.5362218 0.01411,-0.098778 0.01411,-0.1975554 0.01411,-0.4092219 0.01411,-0.8184438 0,-0.084667 -0.07055,-0.084667 -0.05645,0 -0.08467,0.070555 -0.07055,0.028222 -0.127,0.1269999 -0.05644,0.098778 -0.09878,0.1269999 -0.169334,0.2963331 -0.239889,0.3809997 -0.04233,0.084667 -0.155222,0.2539998 -0.254,0.2963331 -0.522111,0.5785551 -0.04233,0.056444 -0.183444,0.1834443 -0.155222,0.141111 -0.211667,0.2398887 -0.127,0.056444 -0.268111,0.2257776 Q 61.975947,6.199467 61.863058,6.2276892 61.651392,6.4111335 61.425614,6.5804667 61.256281,6.763911 60.931726,6.9473553 60.621282,7.1307996 60.536615,7.2013551 60.240282,7.3706883 59.915727,7.469466 59.746393,7.52591 59.57706,7.568244 q -0.09878,0 -0.112889,0.028222 0.08467,-0.056444 0.155222,-0.1128888 0.225778,-0.098778 0.451556,-0.2116665 0.479777,-0.4374441 1.001888,-0.8043327 0.197555,-0.2257776 0.437444,-0.3809997 0.183444,-0.2116665 0.381,-0.3809997 0.197555,-0.2539998 0.451555,-0.4797774 0.239888,-0.2398887 0.437444,-0.4938885 0.07055,-0.1128888 0.282222,-0.3668886 0.282222,-0.3386664 0.366888,-0.5362218 0.09878,-0.3104442 0.08467,-0.4092219 0,-0.042333 -0.01411,-0.098778 -0.02822,-0.084667 0.01411,-0.1128888 -0.07055,-0.098778 -0.155222,0 -0.07056,-0.014111 -0.239889,0.1269999 -0.211666,0.098778 -0.380999,0.2398887 -0.338667,0.2681109 -0.465667,0.3386664 -0.08467,0.098778 -0.239888,0.1552221 -0.451556,0.2539998 -0.564444,0.3527775 -0.169334,0.070556 -0.338667,0.1269999 -0.169333,0.028222 -0.338666,0.042333 -0.254,-0.028222 -0.437444,-0.1128888 -0.169334,-0.014111 -0.324556,-0.1975554 0.211667,0.014111 0.395111,-0.042333 0.08467,0 0.465666,-0.141111 0.381,-0.2257776 0.790222,-0.4092219 0.127,-0.1128888 0.395111,-0.1975554 0.225777,-0.070555 0.296333,-0.1128888 0.282222,-0.1269999 0.324555,-0.1269999 0.564444,-0.2398887 1.128888,-0.3809997 0.08467,-0.028222 0.197556,-0.042333 0.141111,-0.014111 0.127,-0.1552221 -0.08467,-0.1552221 -0.451556,-0.1834443 -0.155222,0 -0.239888,-0.056444 0.09878,-0.084667 0.268111,-0.098778 0.437444,-0.1128888 0.677332,0.042333 0.112889,0.028222 0.155222,0.1269999 0.04233,0.098778 0.112889,0.1834443 0.324556,-0.028222 0.635,-0.070556 0.380999,-0.070555 0.790221,-0.1552221 0.197556,-0.014111 0.395111,-0.042333 0.02822,-0.042333 0.141111,-0.070555 0.07056,-0.014111 0.112889,-0.042333 0.310444,-0.042333 0.663222,-0.056444 0.02822,-0.028222 0.268111,-0.056444 z M 64.332495,0.44214794 q 0.239889,0.0564444 0.465666,0.2116665 0.04233,0.0705555 0.197556,0.141111 0.126999,0.0564444 0.183444,0.1128888 0.141111,0.0423333 0.296333,0.11288876 0.155222,0.070556 0.225778,0.2257776 0.01411,0.014111 0.08467,0.2257777 -0.01411,0.1834443 -0.310444,0.5362218 -0.112889,-0.042333 -0.225778,-0.084667 -0.04233,0 -0.09878,-0.028222 -0.07056,-0.042333 -0.112889,0 -0.08467,-0.014111 -0.155222,0 -0.08467,0.014111 -0.127,-0.056444 -0.211667,0.014111 -0.409222,0.056444 -0.112889,0.070556 -0.395111,0.1269999 -0.112889,0.042333 -0.225777,0.084667 -0.155223,0 -0.282222,0.070555 -0.112889,0.084667 -0.239889,0.141111 -0.05644,-0.028222 -0.155222,0.014111 -0.08467,0.042333 -0.141111,0.014111 -0.169333,0.042333 -0.310444,-0.014111 -0.112889,-0.042333 -0.211667,0.014111 -0.183444,0.014111 -0.381,0.028222 -0.04233,0 -0.05644,-0.014111 0.01411,-0.042333 0.112889,-0.056444 0.112889,-0.056444 0.366888,-0.1693332 0.183445,-0.070555 0.522111,-0.2963331 0.254,-0.1834443 0.493889,-0.3809997 0.08467,-0.098778 0.324555,-0.2822221 0.197555,-0.141111 0.296333,-0.26811086 0.02822,-0.1975554 0.07055,-0.2398887 0.127,-0.0846666 0.197556,-0.2257774 z m 12.02266,4.27566336 q -0.04233,0.014111 -0.02822,0.098778 0,0.056444 -0.01411,0.084667 0.04233,0.3386664 0.02822,0.423333 0.01411,0.028222 0,0.1128888 -0.01411,0.098778 0.01411,0.1552221 -0.01411,0.3245553 -0.04233,0.6491106 -0.02822,0.141111 -0.05644,0.282222 0.01411,0.1128888 -0.08467,0.3951108 -0.02822,0.1975554 -0.05644,0.3809997 -0.04233,0.2116665 -0.09878,0.423333 -0.01411,0.070555 0.04233,0.070555 0.07056,0 0.127,-0.070555 0.09878,-0.042333 0.211666,-0.1975554 0.127,-0.1552221 0.197556,-0.1975554 0.127,-0.1693332 0.239889,-0.3527775 Q 77.018377,6.6651431 77.244154,6.3970322 77.385265,6.1430324 77.526376,5.8890326 77.371154,5.7055883 77.201821,5.5080329 76.891377,5.1834776 76.566822,4.8448112 76.468044,4.7037002 76.355155,4.7178113 Z M 75.226267,2.841035 q 0.127,0.028222 0.239889,0.1269999 0.169333,0.141111 0.352777,0.3104442 0.183445,0.1552221 0.282222,0.3668886 0.08467,0.2116665 0.112889,0.4656663 0.04233,0.070556 0.07056,0.2539998 -0.02822,0.141111 0.05644,0.2681109 0.451555,0.1128888 0.522111,0.1552221 0.225777,0.1269999 0.437444,0.2398887 0.239889,0.084667 0.465666,0.2398887 0.09878,-0.014111 0.09878,-0.1128888 0.01411,-0.098778 0.05644,-0.1552221 0.08467,-0.2116665 0.155222,-0.4374441 0.09878,-0.423333 0.197556,-0.846666 0,-0.084667 0,-0.1693332 0,-0.1269999 0.141111,0.014111 0.08467,-0.042333 0.169333,0.028222 0.08467,0.070556 0.07055,0.1693332 0.211667,0.3809997 0.225778,0.4938885 -0.01411,0.056444 0.05644,0.3245553 -0.112888,0.1975554 -0.08467,0.3527775 -0.05644,0.042333 -0.07056,0.2116665 -0.01411,0.1269999 -0.05644,0.1975554 -0.01411,0.1552221 -0.141111,0.3809997 0,0.070556 0.127,0.1693332 0.09878,0.084667 0.127,0.1552221 0.268111,0.1834443 0.493888,0.4656663 0.09878,0.2257776 0.239889,0.4374441 -0.02822,0.1975554 0.01411,0.423333 0.05644,0.1693332 0.05644,0.3104442 -0.02822,0.028222 -0.02822,0.098778 0,0.1128888 -0.05644,0.1128888 -0.112889,-0.084667 -0.197556,0 -0.169333,-0.070556 -0.282222,0.042333 -0.05644,0.070555 -0.155222,0 -0.07055,-0.042333 -0.09878,-0.042333 -0.127,0.014111 -0.211667,-0.084667 -0.07055,-0.084667 -0.127,-0.1693332 Q 78.189581,7.1872534 78.17547,7.0461424 78.13314,6.9191425 78.062581,6.8203648 q -0.08467,0.014111 -0.225777,0.2398887 -0.141111,0.070556 -0.211667,0.1552221 -0.169333,0.1269999 -0.338666,0.2539998 -0.169333,0.1269999 -0.338667,0.1975554 -0.09878,0.014111 -0.239888,0.1128888 -0.183445,0.1128888 -0.282222,0.1128888 -0.225778,0.070556 -0.451556,0.141111 -0.09878,0.070556 -0.141111,0.1834443 -0.02822,0.1128888 -0.05644,0.2257776 0.01411,0.056444 -0.07056,0.1552221 -0.04233,0.056444 -0.05644,0.1128889 -0.08467,0.098778 -0.155222,0.2116665 -0.07056,0.1128888 -0.197555,0.1552221 -0.08467,0.028222 -0.155223,-0.028222 -0.07055,-0.056444 -0.126999,-0.070556 -0.239889,0.070556 -0.282222,-0.042333 0,-0.2398887 -0.01411,-0.4797775 -0.05644,-0.098778 -0.01411,-0.1975554 0.02822,-0.098778 0.02822,-0.1975554 0.02822,-0.2963331 0,-0.6067773 0,-0.1552221 0.05644,-0.1552221 0.01411,0.1269999 0.197555,0.3104442 0.112889,0.1128888 0.211667,-0.1975554 0.07056,-0.2257776 0.127,-0.4656663 0.08467,-0.282222 0.127,-0.5362218 0.01411,-0.1693332 0.08467,-0.3104442 0.02822,-0.3809997 0.112889,-0.7337772 0.01411,-0.2257776 0.07056,-0.423333 l 0.01411,-0.6491106 q -0.01411,-0.1834443 -0.02822,-0.3527775 0,-0.1834443 -0.08467,-0.3245553 -0.0141,-0.2257772 -0.169322,-0.4515548 -0.08467,-0.1975554 -0.225778,-0.3245553 z m 5.192885,-2.07433176 0.01411,0.0141111 q 0.07056,-0.0141111 0.169333,0.0705555 0.09878,0.0846666 0.155222,0.0846666 0.324556,0.18344426 0.691444,0.35277746 0.04233,0.042333 0.127,0.070556 0.07056,0.028222 0.09878,0.1128889 0.112889,0.1552221 0.183444,0.3386664 -0.127,0.098778 -0.268111,0.1975554 -0.366888,-0.028222 -0.423333,0.2116665 -0.211666,0.2116665 -0.225777,0.2963331 0,0.070555 -0.07056,0.3527775 -0.04233,0.042333 -0.254,0.4374441 -0.02822,0.1693332 -0.07055,0.3245553 -0.05645,0.2398887 -0.112889,0.4797774 -0.02822,0.141111 -0.01411,0.2681109 -0.07056,0.1975554 -0.07056,0.423333 l 0.01411,0.5926662 q 0.01411,0.141111 0.05644,0.2963331 0.02822,0.282222 0.155222,0.6632217 0.07056,0.3668886 0.282222,0.7761105 0.04233,0.1269999 0.268111,0.5503329 0.112889,0.1552221 0.239889,0.3245553 0.127,0.1693332 0.310444,0.2681109 0.155222,0.141111 0.634999,0.3809998 0.09878,0.1128888 0.239889,-0.070556 0.01411,-0.2539998 -0.02822,-0.4797774 0,-1.1429991 0.02822,-1.3546656 0.04233,-0.3951108 0.08467,-0.7902216 0,-0.2681109 -0.01411,-0.5362218 0.02822,0 0.05644,0.070556 0.01411,0.056444 0.05644,0.084667 0.05644,0.042333 0.07056,0.1975554 0.01411,0.141111 0.07055,0.2116665 0,0.2116665 0.08467,0.423333 0.05644,0.2116665 0.09878,0.423333 0.07055,0.1269999 0.112889,0.282222 0.09878,0.4656663 0.211666,0.6208884 -0.01411,0.070556 0.05644,0.1552221 0.05644,0.084667 0.07056,0.1128888 0.07055,0.014111 0.09878,0.141111 0.08467,0.1834443 0.239888,0.3386664 0.197556,0.2963332 0.395111,0.5785552 0.07056,0.070556 0.112889,0.1975554 0.05644,0.1693332 0.09878,0.2116665 0,0.1552221 0.127,0.2539998 0.02822,0.056444 -0.02822,0.070555 -0.07055,0 -0.09878,0.056444 0,0.070555 -0.04233,0.070555 -0.07055,-0.014111 -0.127,-0.014111 -0.112888,0 -0.126999,0.098778 -0.01411,0.09878 -0.04233,0.169333 0,0.112889 -0.05644,0.112889 -0.09878,0.04233 -0.197556,0.07056 -0.169333,0.01411 -0.352777,0.01411 -0.183444,-0.02822 -0.381,-0.07056 -0.183444,-0.04233 -0.381,-0.09878 -0.08467,-0.08467 -0.366888,-0.183444 Q 82.183039,9.9106962 81.985484,9.7978074 81.67504,9.600252 81.562151,9.4873632 81.491596,9.4450299 81.392818,9.31803 81.29404,9.1910301 81.223485,9.1628079 80.659041,8.4995861 80.306263,7.77992 80.151041,7.3142537 79.981708,6.8909207 q 0,-0.014111 -0.05644,-0.2116665 -0.01411,-0.098778 -0.09878,-0.3386664 -0.09878,-0.282222 -0.09878,-0.4515552 -0.08467,-0.3809997 -0.08467,-0.7619994 0.01411,-0.042333 0,-0.1269999 -0.01411,-0.070556 0.01411,-0.1128888 0,-0.1834443 -0.01411,-0.3809997 0.01411,-0.1834443 0.01411,-0.3809997 0.02822,-0.2963331 0.09878,-0.564444 -0.01411,-0.1552221 0.127,-0.6914439 0.112889,-0.4656663 0.141111,-0.5079996 0.05644,-0.2539998 0.112889,-0.5079996 0.04233,-0.056444 -0.01411,-0.1128888 -0.05645,-0.042333 -0.09878,0 -0.268111,0.042333 -0.550333,0.084667 -0.09878,0.042333 -0.634999,0.141111 -0.381,0.084667 -0.691444,0.282222 -0.127,0.014111 -0.352778,0.1552221 -0.352777,0.2116665 -0.719666,0.3245553 -0.127,0.056444 -0.254,0.098778 -0.197555,0.070555 -0.39511,0.1269999 -0.127,0.056444 -0.352778,0.042333 -0.239889,-0.014111 -0.338666,0.042333 -0.04233,-0.070555 0.09878,-0.1128888 0.211667,-0.1128888 0.409222,-0.2681109 0.268111,-0.098778 0.508,-0.2539998 0.536222,-0.2398887 1.058332,-0.4938885 0.564444,-0.2398887 0.804333,-0.3104442 l 0.536222,-0.1834444 q 0.268111,-0.084667 0.536222,-0.1834443 0.05644,0.014111 0.127,-0.070556 0.05644,-0.056444 0.112888,-0.070556 0.141111,-0.14111096 0.310445,-0.22577756 0.02822,-0.0705555 0.183444,-0.0987768 z m 13.814766,7.16843886 -0.04233,0.014111 q -0.169333,0 -0.296333,0.070556 -0.04233,0.014111 -0.239889,0.042333 -0.169333,0.014111 -0.268111,0.084667 -0.02822,0.042333 -0.09878,0.3104442 -0.05644,0.2822221 -0.127,0.550333 -0.01411,0.141111 -0.04233,0.2681109 -0.01411,0.2116665 -0.08467,0.4092219 0.04233,0.070556 0.112888,0.042333 0.08467,-0.042333 0.141111,-0.084667 0.07056,-0.028222 0.169334,-0.098778 0.155222,-0.1128888 0.253999,-0.1269999 0.211667,-0.1834443 0.338667,-0.2257776 0.395111,-0.3245553 0.77611,-0.6491107 0.183445,-0.098778 0.07056,-0.2398887 -0.141111,-0.1269999 -0.282222,-0.2539998 -0.09878,-0.028222 -0.197556,-0.084667 -0.08467,-0.056444 -0.183444,-0.028222 z m -0.733777,-0.3951108 -0.02822,0.042333 q 0.01411,0.070556 -0.01411,0.1552221 -0.02822,0.084667 0.04233,0.141111 0.09878,-0.084667 0.268111,-0.1269999 0.05644,-0.014111 0.05644,-0.056444 0,-0.056444 -0.05644,-0.070556 -0.141111,-0.098778 -0.268111,-0.084666 z m 1.975554,-0.084667 q -0.155222,0.028222 -0.296333,0.1128888 -0.04233,0.042333 -0.127,0.070556 -0.127,0.042333 -0.155222,0.098778 0.225777,0.084667 0.451555,0.1552221 0.155222,-0.042333 0.282222,-0.3386664 0.05644,-0.070556 -0.02822,-0.1128888 -0.07056,-0.042333 -0.127,0.014111 z M 93.35903,5.3386997 q 0.155222,-0.014111 0.338666,0.028222 0.197556,0.141111 0.395111,0.2681109 0.05645,0.014111 0.04233,0.098778 -0.01411,0.084667 0.04233,0.1269999 0.183444,0 0.366888,0 0.169334,-0.028222 0.338667,0.014111 0.155222,0.028222 0.09878,0.2398887 -0.08467,0.1128888 -0.225777,0.141111 l -0.282222,0.014111 q -0.225778,0.042333 -0.465667,0.070556 -0.296333,0.1552221 -0.52211,0.3668886 0.04233,0.1269999 0.08467,0.2963331 -0.02822,0.1693332 -0.01411,0.3386664 0.268111,0.098778 0.564444,0.1834443 0.09878,0.028222 0.268111,-0.070556 0.112889,-0.070555 0.183445,-0.084667 0.677332,-0.423333 0.931332,-0.6491106 0.05644,-0.070556 0.02822,-0.1269999 -0.02822,-0.070555 -0.02822,-0.141111 -0.02822,-0.084667 0.02822,-0.098778 0.04233,-0.014111 0.127,0.014111 0.141111,-0.1834443 0.437444,0 0.112889,-0.014111 0.536222,0.014111 0.366889,-0.042333 0.409222,0.1552221 0.01411,0.1269999 -0.07055,0.2539998 -0.169334,0.141111 -0.352778,0.282222 -0.239889,0.098778 -0.479777,0.1834443 -0.08467,0.084667 -0.169334,0.2963331 -0.07055,0.1552221 -0.126999,0.2398887 -0.02822,0.056444 -0.08467,0.1128888 -0.05644,0.056444 -0.01411,0.1269999 0.606777,0.1834443 0.860777,0.3104442 0.493888,0.2116665 0.550333,0.2398887 0.169333,0.028222 0.282222,0.1411111 0.296333,0.098778 0.352777,0.2681109 -0.01411,0.1834443 -0.02822,0.3527775 -0.112889,0.098778 -0.04233,0.2681109 0.01411,0.098778 0.01411,0.1834443 0.07055,0.2398886 0.127,0.4797776 0.04233,0.127 0.02822,0.155222 -0.127,0.127 -0.268111,0.183444 Q 97.437142,10.54569 97.253698,10.334028 97.042027,10.136474 96.858583,9.9389184 96.661027,9.7554741 96.534027,9.5861409 96.265917,9.31803 95.983695,9.2192523 95.786139,9.0640302 95.574473,8.894697 95.489803,8.838253 95.405139,8.753586 q -0.08467,-0.098778 -0.155222,0 -0.225777,0.1834443 -0.338666,0.3809997 -0.211667,0.2257776 -0.423333,0.4374441 -0.197555,0.2116665 -0.409222,0.4092219 -0.02822,0.056444 -0.141111,0.1411113 -0.141111,0.09878 -0.169333,0.183444 -0.352778,0.254 -0.705555,0.493888 -0.127,0.02822 -0.239889,0.211667 -0.112889,0.169333 -0.197555,0.211666 -0.254,0 -0.352778,-0.02822 -0.04233,-0.112889 -0.09878,-0.197555 0.01411,-0.197556 -0.141111,-0.352778 -0.05644,-0.09878 -0.141111,-0.183444 -0.08467,-0.09878 -0.01411,-0.197555 -0.112888,-0.169334 -0.02822,-0.3245556 0.141111,-0.098778 0.310444,-0.1834443 0.127,0.014111 0.225778,-0.1128888 0.07055,-0.098778 0.08467,-0.2398887 0.05644,-0.1693332 0.112888,-0.3386664 0.04233,-0.282222 0.127,-0.5644441 0.02822,-0.1834443 -0.155222,-0.2257776 0.09878,-0.084667 0.254,-0.1269999 0.09878,-0.1834443 0.155222,-0.6208884 0.01411,-0.056444 -0.01411,-0.1128888 -0.02822,-0.056444 -0.07056,-0.028222 -0.155222,0 -0.26811,0.2257776 -0.225778,0.1552221 -0.423333,0.3386664 -0.239889,0.2116665 -0.479778,0.423333 -0.197555,0.141111 -0.366888,0.3104443 -0.09878,0.042333 -0.282222,0.2257776 -0.183445,0.1834443 -0.310445,0.2257776 -0.155222,0.1128888 -0.324555,0.2116665 -0.07056,0.084667 -0.211666,0.1693332 -0.169334,0.098778 -0.225778,0.1693332 -0.225778,0.084667 -0.296333,0.141111 -0.112889,0.056444 -0.239889,0.098778 -0.225777,0.014111 -0.423333,0.084667 -0.09878,0.02822 -0.338666,-0.070556 -0.02822,-0.070556 0.09878,-0.056444 0.225778,-0.070555 0.409222,-0.141111 0.225778,-0.141111 0.451556,-0.282222 0.04233,-0.042333 0.338666,-0.2681109 0.09878,-0.042333 0.225778,-0.1834443 0.169333,-0.1834443 0.26811,-0.2116665 0.169334,-0.1693332 0.366889,-0.3245554 0.296333,-0.282222 0.437444,-0.423333 0.07056,-0.042333 0.197556,-0.1834443 0.09878,-0.1128888 0.183444,-0.1693332 0.155222,-0.1975554 0.366888,-0.3668886 0.07056,-0.1269999 0.225778,-0.2398887 0.09878,-0.2398887 0.239889,-0.3527775 -0.07056,-0.098778 -0.155222,0 -0.254,0.098778 -0.522111,0.1834443 -0.183444,0.1128888 -0.381,0.2257776 -0.127,0.014111 -0.211666,0.084667 -0.08467,0.070556 -0.183445,0.1128888 -0.239888,0.084667 -0.479777,0.1552221 -0.254,0.070556 -0.536222,0.084667 -0.169333,-0.070556 -0.310444,-0.070556 -0.282222,-0.084667 -0.395111,-0.1552221 -0.07055,-0.042333 0.02822,-0.056444 0.09878,0 0.197556,-0.014111 l 0.691444,-0.2257776 q 0.338666,-0.084667 0.366888,-0.084667 0.225778,-0.056444 0.451556,-0.1128888 0.183444,-0.028222 0.352777,-0.070555 0.239889,-0.070556 0.465666,-0.1552221 0.112889,-0.028222 0.225778,-0.056444 0.381,-0.1128888 0.451555,-0.1269999 0.01411,-0.028222 0.112889,-0.056444 0.09878,-0.028222 0.112889,-0.098778 -0.05644,-0.070555 0.04233,-0.028222 0.08467,0.070556 0.254,-0.070555 0.01411,-0.014111 0.112889,-0.042333 0.07055,-0.028222 0.04233,-0.084667 -0.183444,-0.042333 -0.493889,-0.1834443 -0.169333,-0.098778 -0.352777,-0.2116665 -0.127,-0.1269999 -0.225778,-0.1834443 0.155222,-0.014111 0.310445,-0.028222 0.141111,-0.056444 0.324555,-0.084667 0.183444,-0.014111 0.366888,0 0.05644,-0.014111 0.197556,-0.042333 z m 0.64911,-3.3443307 0.127,0.070556 q 0.141111,0.014111 0.324556,0.2116665 0.155222,0.1693332 0.254,0.2116665 0.07055,0.1128888 0.07055,0.3245553 0,0.098778 -0.02822,0.3527775 -0.02822,0.2116665 -0.112889,0.423333 -0.05644,0.2116665 -0.155222,0.423333 -0.05644,0.098778 -0.141111,0.042333 -0.04233,-0.028222 -0.141111,-0.1269999 -0.08467,-0.042333 -0.112889,-0.1834443 -0.02822,-0.1269999 -0.01411,-0.2257776 0,-0.2963331 0.04233,-0.5785551 0.02822,-0.5221107 -0.05644,-0.7196661 0,-0.028222 -0.04233,-0.1128888 -0.04233,-0.070556 -0.01411,-0.1128888 z M 91.31292,1.8391469 q 0.05644,-0.014111 0.127,0.028222 0.239889,0.028222 0.423333,0.1834443 0.225778,0.1552221 0.05644,0.3668886 -0.09878,0.028222 -0.197556,0.2257776 -0.04233,0.014111 -0.02822,0.042333 0.01411,0.028222 0.01411,0.056444 -0.127,0.042333 -0.183444,0.1552221 -0.05644,0.1128888 -0.141111,0.2116665 -0.02822,0.070555 -0.155222,0.1834443 -0.127,0.1128888 -0.169333,0.1975554 -0.05644,0.028222 -0.08467,0.084667 -0.02822,0.056444 0.04233,0.084667 0.05644,0.014111 0.776111,0.2398887 0.09878,0.014111 0.155222,-0.056444 0.05644,-0.084667 0.09878,-0.1552221 0.197555,-0.3386664 0.338666,-0.6914439 0.02822,-0.070555 0,-0.1128888 -0.01411,-0.056444 -0.08467,-0.042333 -0.05644,0.028222 -0.324555,-0.014111 -0.05644,-0.028222 -0.127,-0.028222 -0.07055,-0.014111 -0.07055,-0.056444 0.155222,-0.014111 0.310444,-0.028222 0.141111,-0.042333 0.268111,-0.084667 0.07055,-0.014111 0.05644,-0.1269999 -0.01411,-0.084667 0.02822,-0.1128888 0.112889,-0.028222 0.211667,-0.056444 0.09878,0.014111 0.197555,0.056444 0.09878,0.042333 0.211667,0 0.127,0 0.254,0.084667 0.07055,0.1128888 0,0.2257776 -0.02822,0.042333 -0.183445,0.1975554 -0.141111,0.070556 -0.197555,0.1975554 -0.05645,0.1269999 -0.09878,0.2539998 -0.07055,0.098778 -0.268111,0.5362218 -0.07055,0.141111 -0.112889,0.3104442 0.04233,0.1269999 0.08467,0.2539998 0.127,0.141111 0.01411,0.3527775 -0.02822,0.084667 -0.127,0.1128888 -0.183444,0 -0.324555,-0.056444 -0.08467,0.028222 -0.112889,0.1128888 -0.02822,0.070556 -0.07055,0.141111 -0.225778,0.282222 -0.465667,0.564444 -0.296333,0.282222 -0.620888,0.5503329 -0.522111,0.3104442 -0.90311,0.3104442 -0.183445,-0.014111 -0.310445,-0.084667 0.08467,-0.070556 0.197556,-0.084667 0.324555,-0.141111 0.550333,-0.4092219 0.07056,-0.042333 0.127,-0.141111 0.07055,-0.1128888 0.112888,-0.141111 0.155222,-0.2398887 0.691444,-0.8325549 0.02822,-0.070555 0.09878,-0.1552221 0.112889,-0.141111 0.127,-0.2116665 -0.01411,-0.014111 -0.08467,-0.070556 -0.07055,-0.056444 -0.08467,-0.1128888 -0.211667,-0.1693332 -0.352778,-0.3527775 -0.05644,-0.056444 -0.112889,-0.1269999 -0.05644,-0.084667 -0.127,-0.084667 -0.126999,0.098778 -0.409221,0.2116665 -0.155223,0.014111 -0.282222,-0.056444 -0.04233,0 -0.04233,-0.028222 0,-0.042333 0.07056,-0.042333 0.366888,-0.282222 0.592666,-0.5785551 0.155222,-0.2257776 0.296333,-0.4515552 0.01411,-0.014111 0.141111,-0.1834443 0.112889,-0.2116665 0.211667,-0.4374441 0.04233,-0.084667 0.02822,-0.1552221 -0.01411,-0.098778 -0.09878,-0.098778 -0.07056,-0.056444 0.04233,-0.070556 z m 1.509888,-0.95955486 q 0.127,-0.0141111 0.395111,0.0141111 0.381,-0.0423333 0.578555,0.21166646 0.08467,0.1269999 -0.04233,0.2539998 -0.127,0.1411111 -0.268111,0.084667 -0.225778,-0.084667 -0.423333,-0.1269999 -0.381,-0.014111 -0.804333,0.028222 -0.211666,0.042333 -0.423333,0.084667 -0.239889,0.042333 -0.465666,0.1128889 -0.211667,0.070556 -0.395111,0.1693332 -0.127,0.070556 -0.268111,0.098778 -0.282222,0.014111 -0.493888,-0.098778 -0.211667,-0.1128888 -0.423333,-0.2116665 0,-0.056445 0.05644,-0.056445 0.05644,0 0.09878,0.028222 0.310444,-0.070556 0.380999,-0.1128889 0.239889,-0.056444 0.479778,-0.1128888 0.155222,-0.014111 0.310444,-0.042333 l 0.761999,-0.098778 q 0.197556,-0.070556 0.423333,-0.098778 0.141111,0 0.522111,-0.12699986 z m 2.737554,-0.74788831 q 0.239888,0.0141111 0.465666,0.1552221 0.183444,0.0846666 0.296333,0.39511081 -0.04233,0.1693332 -0.04233,0.35277746 0,0.1834443 -0.07056,0.3527775 -0.07055,0.1834444 -0.07055,0.3951109 0,0.1128888 0,0.2116665 -0.07056,0.1269999 -0.04233,0.3104442 -0.07055,0.4938885 -0.04233,1.0018881 0.02822,0.4515552 0.04233,0.8889993 -0.01411,0.1269999 0.01411,0.4092219 0.02822,0.2398887 0.01411,0.3809997 0.04233,0.2681109 -0.01411,0.6632217 -0.169333,0.3527775 -0.282222,0.4374441 -0.07055,-0.042333 -0.141111,-0.070556 -0.07055,-0.014111 -0.08467,-0.084667 -0.169333,-0.423333 -0.493889,-0.6208884 -0.09878,-0.084667 -0.08467,-0.1693332 0.254,0.028222 0.352777,-0.014111 0.155222,-0.042333 0.155222,-0.3386664 0,-0.1834443 0.02822,-0.3527775 0,-0.4938885 0.01411,-0.5503329 0,-0.3809997 -0.02822,-1.0865547 -0.02822,-0.7337772 0.01411,-1.4393323 0.01411,-0.028222 0,-0.084667 -0.01411,-0.042333 0.01411,-0.070556 0.01411,-0.42333296 0.04233,-0.81844376 -0.04233,-0.0846666 -0.141111,-0.0846666 -0.08467,-0.0141111 -0.141111,-0.0423333 0.07055,-0.1128888 0.225778,-0.1269999 z M 107.23024,7.2860315 q -0.0988,-0.028222 -0.127,0.028222 -0.254,0.014111 -0.52211,0.028222 -0.0282,0.028222 -0.127,0 -0.0847,-0.028222 -0.11289,0.042333 0.0423,0.084667 0.0423,0.3951108 -0.0282,0.2257776 -0.0988,0.4515552 -0.0564,0.014111 -0.0423,0.042333 0.0282,0.028222 0.0847,0.028222 l 0.42333,-0.098778 q 0.23989,-0.084667 0.46567,-0.1834443 0.0564,-0.282222 0.11289,-0.5785551 -0.0141,-0.042333 -0.0141,-0.084667 -0.0282,-0.098778 -0.0847,-0.070556 z m -0.0423,-0.987777 q -0.0988,-0.014111 -0.254,0.056444 -0.11289,0.056444 -0.16934,0.056444 -0.31044,0.056444 -0.39511,0.098778 -0.0847,-0.028222 -0.15522,0.014111 -0.0847,0.042333 -0.0423,0.1269999 0.0564,0.1693332 0.127,0.3527775 -0.0141,0.070556 0.0141,0.1269999 0.0282,0.070555 0.0988,0.056444 0.28222,-0.084667 0.55033,-0.1834443 0.0564,-0.056444 0.18344,-0.1128888 0.19756,-0.084667 0.23989,-0.1834443 0,-0.1128888 0,-0.2398887 0.0141,-0.084667 -0.0564,-0.1552221 -0.0706,-0.056444 -0.14111,-0.014111 z m 1.29822,-0.3527775 q -0.127,0.042333 -0.26811,0.084667 -0.127,0.070556 -0.31045,0.1269999 l -0.0141,0.028222 q 0.0423,0.056444 0.127,0.084667 0.0564,0.098778 0.0706,0.2116665 0.0282,0.070556 0.0988,0.056444 0.0564,-0.014111 0.127,-0.014111 0.25399,-0.028222 0.35277,0 0.14111,-0.042333 0.254,0 0.14111,0.056444 0.11289,0.2116665 0.0847,0.141111 -0.15522,0.282222 l -0.69144,0.056444 q -0.0706,0.028222 -0.15523,0.028222 -0.0847,-0.014111 -0.127,0.056444 -0.0988,0.1834443 -0.21166,0.6067773 -0.0282,0.070556 0.0282,0.084667 0.0847,0.014111 0.15522,-0.028222 0.59267,-0.1269999 0.79022,-0.141111 0.0565,-0.014111 0.18345,0 0.15522,0.014111 0.22577,-0.042333 0.0282,-0.1975554 0.14112,-0.4656663 0.15522,-0.3668886 0.31044,-0.7337772 0.0282,-0.1128888 0.0564,-0.2257776 -0.0141,-0.056444 -0.0564,-0.042333 -0.0423,0.014111 -0.0423,0.070556 -0.0847,0.070555 -0.15523,0.1552221 -0.0705,0.098778 -0.18344,0.098778 -0.0847,-0.056444 -0.18344,-0.1834443 -0.15523,-0.1128888 -0.31045,-0.1975554 -0.0423,-0.056444 -0.0706,-0.1269999 -0.0282,-0.070555 -0.0988,-0.042333 z m -0.31045,-0.9595548 q -0.0564,0.028222 -0.0423,0.056444 0.0565,0.056444 0.14111,0.042333 0.0706,-0.042333 0.0141,-0.098778 -0.0564,-0.056444 -0.11289,0 z m 0.23989,-1.4816655 q -0.18344,0.084667 -0.36689,0.1693332 -0.21166,0.070555 -0.42333,0.1269999 -0.14111,0 -0.29633,-0.014111 -0.0847,0 -0.16934,-0.014111 -0.0988,-0.014111 -0.14111,0.056444 0.0141,0.3386664 0.0141,0.6773328 0.0141,0.028222 0,0.098778 -0.0141,0.098778 0.0423,0.141111 0.22578,-0.056444 0.45155,-0.1128888 0.26811,-0.1128888 0.83256,-0.056444 0.0988,-0.070555 0.0847,-0.1834443 0,-0.1269999 0.0282,-0.2116665 0.0141,-0.2539998 0.0282,-0.5079996 0.0282,-0.084667 0,-0.1552221 -0.0282,-0.056444 -0.0847,-0.014111 z m 0.0141,-1.0442214 -0.23988,0.084667 q -0.55034,0.070555 -0.64912,0.1128888 -0.11288,0 -0.22577,0 -0.0847,0.014111 -0.19756,0 -0.0988,-0.014111 -0.15522,0.070555 l 0.0282,0.3809997 q 0.0141,0.084667 0,0.1693332 0,0.098778 0.0706,0.1552221 0.0988,-0.042333 0.19755,-0.084667 0.26811,-0.1128888 0.55034,-0.1975554 0.23988,-0.084667 0.52211,-0.056444 0.11289,0.084667 0.19755,-0.014111 l -0.0141,-0.4515552 q 0,-0.2116665 -0.0847,-0.1693332 z m -0.0564,-1.62277656 q -0.11289,0.0282222 -0.127,0.0564444 -0.0706,0 -0.18344,0.0705555 -0.14112,0.0846666 -0.23989,0.0705555 -0.21167,0.028222 -0.39511,-0.014111 -0.0423,0.042333 -0.15523,0.056444 -0.0988,0.014111 -0.127,0.042333 -0.18344,-0.056444 -0.46566,0.2539998 -0.0423,0.056444 -0.127,0.1128889 -0.0847,0.056444 -0.0423,0.141111 0.15523,0.1128888 0.29634,0.2116665 0.0988,0.028222 0.127,0.1128888 0.0282,0.098778 0.0564,0.1975554 0.0141,0.028222 0,0.084667 -0.0282,0.084667 0.0282,0.1128888 0.19756,-0.1128888 0.381,-0.2257776 0.55034,-0.1834443 0.83256,-0.1552221 0.0564,0.014111 0.127,0.084667 0.0706,0.070555 0.15522,0.014111 0,-0.141111 0,-0.282222 0,-0.1693332 0,-0.3386665 -0.0141,-0.2257776 -0.0423,-0.45155508 0,-0.0564444 -0.0282,-0.1128888 -0.0282,-0.0705555 -0.0706,-0.0423333 z m -2.32833,-0.83255491 q 0.0705,-0.0141111 0.21166,0.0141111 0.14112,0.0423333 0.28223,0.0846666 0.127,0 0.254,0 0.0564,0.0705555 0.22577,0.0987777 0.14111,0.0282222 0.21167,0.0705555 0.22578,0.0282222 0.26811,0.26811091 0.0141,0.0564444 -0.0141,0.1552221 -0.0282,0.0987777 0.0706,0.1269999 0.29633,-0.141111 0.59266,-0.2963331 0.0988,-0.18344431 0.43745,-0.18344431 0.18344,-0.0282222 0.32455,0.0282222 0.22578,-0.0141111 0.43745,0.0564444 0.16933,0.141111 0.33866,0.3104442 0.16934,0.1552221 0.22578,0.38099967 0,0.1552221 0,0.3104442 -0.0564,0.2257777 0,0.4797775 -0.0141,0.1975554 0.0141,0.4092219 -0.0141,0.4092219 0.0141,0.846666 -0.0141,0.1693332 0.0282,0.4797774 0.0565,0.3104442 0.0282,0.4797774 0,0.042333 -0.0282,0.4092219 -0.0141,0.2257776 -0.0847,0.4515552 -0.0282,0.141111 0.0847,0.2398887 0.0988,0.084667 0.21167,0.1693332 0.19756,0.1552221 0.43744,0.2963331 0.254,0.2257776 0.31045,0.4515552 0.0282,0.1128888 0.0564,0.2116665 -0.0705,0.282222 -0.23989,0.5221107 -0.0564,0.1552221 -0.127,0.2963331 -0.0705,0.1975554 -0.15522,0.3809997 -0.0423,0.056444 -0.11289,0.2116665 -0.0847,0.1834443 -0.18344,0.2681109 -0.0706,0.014111 -0.254,0.1975554 -0.127,-0.042333 -0.23989,0 -0.16933,0.098778 -0.35278,0.1269999 -0.0423,-0.014111 -0.14111,0.028222 -0.0564,0.028222 -0.0988,0.014111 -0.0564,-0.042333 -0.11288,-0.1693332 -0.0423,-0.098778 -0.0988,-0.141111 -0.19756,-0.042333 -0.67733,0.028222 -0.40923,0.098778 -0.49389,0.141111 -0.22578,-0.042333 -0.32456,0.1975554 -0.0847,0.056444 -0.254,-0.014111 -0.15522,-0.056444 -0.22578,-0.028222 -0.22577,0 -0.18344,0.098778 0.14111,0.014111 0.28222,0.028222 0.15522,0 0.23989,0.1411111 0.0423,0.1128888 0.0706,0.2257776 0.0423,0.014111 0.31044,-0.028222 0.39511,-0.084667 0.77611,-0.1834443 0.0706,0 0.0847,-0.070555 0.0282,-0.098778 -0.0564,-0.1411111 -0.127,-0.084667 -0.0847,-0.1128888 0.254,0.042333 0.49388,0.1693332 0.0706,0.070556 0.22578,0.042333 0.15522,-0.028222 0.29634,-0.056444 0.28222,-0.028222 0.56444,-0.056444 0.0988,-0.028222 0.32455,-0.056444 0.29634,-0.028222 0.59267,-0.056444 0.0564,-0.070555 0.254,-0.098778 0.254,0 0.508,-0.014111 0.127,0 0.23989,0 0.14111,0.028222 0.31044,0.028222 0.15523,0 0.28223,0.098778 0.14111,0.2539999 0.14111,0.4233331 0,0.1128888 -0.0988,0.1269999 -0.11289,0.014111 -0.19756,0.042333 -0.15522,0 -0.40922,-0.084667 -0.254,-0.084667 -0.381,-0.084667 -0.29633,-0.084667 -0.73378,-0.1128888 -0.0847,-0.028222 -0.15522,-0.014111 -0.49389,-0.014111 -0.97366,0 -0.28223,0 -0.53623,0.056444 -0.0988,0.028222 -0.0705,0.098778 0.0282,0.070556 0.0564,0.141111 0.0706,0.098778 0.0988,0.3245553 0.0282,0.2681109 0.0847,0.3527775 0.0423,0.2539998 0.0705,0.508 0.0141,0.08467 0.0141,0.155222 -0.0141,0.141111 0.0141,0.649111 -0.0423,0.141111 -0.0141,0.26811 0.0282,0.09878 -0.0423,0.169334 -0.0705,0.05644 -0.11289,0.141111 -0.0564,0.09878 -0.0423,0.211666 0.0141,0.07056 -0.0423,0.09878 -0.0564,0.02822 -0.0988,0 -0.11289,-0.07056 -0.23989,-0.282222 -0.0847,-0.141111 -0.14111,-0.197556 -0.0706,-0.282222 -0.14111,-0.564444 0,-0.197555 -0.0141,-0.239888 -0.0564,-0.05645 -0.0282,-0.09878 0.0423,-0.05644 0.0564,-0.09878 0.0705,-0.183444 0.0847,-0.3668885 -0.0423,-0.3951108 -0.0423,-0.8043327 -0.0141,-0.1975554 -0.0847,-0.3245553 -0.11289,0 -0.31045,0.084667 -0.0988,-0.014111 -0.26811,0.070556 -0.14111,0.070555 -0.21167,0.070555 -0.127,0.042333 -0.254,0.070556 -0.0988,0.014111 -0.127,0.098778 -0.0282,0.084667 -0.0564,0.1693332 0.0141,0.098778 -0.127,0.4374441 -0.0282,0.2116662 -0.11289,0.4233332 -0.0423,0.04233 -0.0847,0.197555 -0.0282,0.112889 -0.0705,0.169333 -0.0141,0.04233 -0.11289,0.310445 l -0.15522,0.253999 q 0,0.08467 -0.19756,0.254 -0.11289,0.112889 -0.26811,0.09878 -0.15522,0 -0.29633,0.01411 0.31044,-0.282222 0.36689,-0.451555 0.16933,-0.310444 0.23989,-0.564444 0.0847,-0.254 0.11288,-0.536222 0.11289,-0.4515552 0.127,-0.5221107 0.0141,-0.056444 -0.0141,-0.1128888 -0.0282,-0.056444 -0.0705,-0.028222 -0.15522,-0.014111 -0.381,0.098778 -0.18345,0.028222 -0.86078,0.3386664 -0.36689,0.2257771 -0.56444,0.2963331 -0.15523,0.141111 -0.57856,0.253999 -0.254,0.07056 -0.508,0.141111 -0.16933,0.01411 -0.32455,0.04233 -0.19756,0.01411 -0.36689,-0.07056 -0.46567,-0.169333 -0.62089,-0.282222 -0.0141,-0.01411 -0.11289,-0.04233 -0.0847,-0.01411 -0.0705,-0.07056 0.16933,0 0.32455,-0.01411 0.19756,-0.02822 0.31044,-0.04233 0.47978,-0.1411106 0.73378,-0.1693328 0.36689,-0.084667 0.71967,-0.1834443 0.39511,-0.084667 0.79022,-0.1834443 0.28222,-0.084667 0.56444,-0.1834443 0.23989,-0.056444 0.46567,-0.1128888 0.26811,-0.056444 0.53622,-0.1269999 0.0564,0 0.0706,-0.028222 0.0282,-0.042333 0.0423,-0.084667 0.0282,-0.141111 0,-0.2539998 -0.0423,-0.070555 -0.11289,-0.084667 -0.0282,-0.014111 0,-0.056444 -0.0282,-0.084667 -0.0988,-0.070556 -0.0705,0.014111 -0.127,0.028222 -0.36688,0 -0.47977,0.1693333 -0.18345,-0.070556 -0.381,-0.084667 -0.0706,0.014111 -0.0706,-0.028222 0,-0.042333 0.0564,-0.056444 -0.0706,-0.098778 -0.15523,-0.1552221 -0.11288,-0.1834443 -0.23988,-0.3386664 -0.0423,-0.028222 -0.0847,-0.1975554 -0.0141,-0.5926662 -0.0423,-1.1853324 -0.0564,-0.3245553 -0.15523,-0.6208884 -0.0564,-0.1128888 -0.15522,-0.1269999 -0.0847,-0.014111 -0.16933,-0.042333 0,-0.098778 0.0705,-0.1269999 0.0847,-0.028222 0.15523,-0.056444 0.254,-0.028222 0.47977,0.056444 0.16934,0.084667 0.36689,0.1693332 0.19756,0.084667 0.32456,0.282222 0.0423,0.098778 0.14111,0.084667 0.0847,-0.014111 0.18344,-0.028222 0.28222,-0.084667 0.56445,-0.1693332 l 0.19755,-0.056444 q 0.28222,-0.084667 0.95956,-0.1693332 0.0423,-0.042333 0.19755,-0.056444 0.15522,-0.014111 0.21167,-0.084667 -0.0988,-0.2116665 -0.21167,-0.4374441 -0.0282,-0.014111 -0.127,-0.141111 -0.0705,-0.084667 -0.127,-0.056444 -0.0988,0 -0.62089,0.1128888 -0.0847,0.028222 -0.16933,0.056444 -0.0988,0.028222 -0.0705,0.1552221 -0.0423,0.014111 -0.0988,0.056444 -0.0847,0.084667 -0.127,0.056444 -0.0847,0.014111 -0.0988,0.084667 -0.0282,0.084667 -0.0282,0.1693332 -0.0988,0 -0.19756,0 -0.0282,-0.070555 -0.16933,-0.141111 -0.0988,-0.056444 -0.127,-0.1128888 -0.0282,-0.084667 -0.15522,-0.1693332 -0.127,-0.084667 -0.14111,-0.1552221 -0.0423,-0.056444 -0.0847,-0.1975554 -0.0706,-0.1834443 -0.14111,-0.2539998 -0.16933,-0.3527775 -0.0706,-0.5785551 0.0141,-0.4656663 0.0282,-0.9454437 -0.0141,-0.564444 -0.0423,-1.128888 -0.0423,-0.4374441 -0.0423,-0.4656663 0,-0.084667 -0.0706,-0.1975555 -0.0847,-0.141111 -0.0564,-0.2257776 0.15522,-0.056444 0.32455,0.056444 0.127,0.1269999 0.23989,-0.014111 0.0706,-0.1269999 0.0847,-0.26811087 0,-0.1975554 -0.0564,-0.4797774 0.0141,-0.0987777 -0.11288,-0.21166651 -0.0847,-0.0846666 -0.0988,-0.141111 0.0423,-0.0705555 0.11289,-0.0705555 0.0705,-0.0141111 0.14111,-0.0423333 z"
     id="text1"
     style="font-size:14.1111px;font-family:' ';-inkscape-font-specification:' , Normal';letter-spacing:0px;word-spacing:0px;stroke-width:0.264583"
     aria-label=" " />
</svg>
