<?xml version='1.0' encoding='UTF-8' standalone='no'?>
<svg height="463pt" viewBox="0 0 733 463" width="733pt" xmlns="http://www.w3.org/2000/svg" xmlns:xlink="http://www.w3.org/1999/xlink">
 <title>Figure 1</title>
 <desc>
Creator: GL2PS 1.4.2, (C) 1999-2020 C. Geuzaine
For: Octave
CreationDate: Wed Jul 10 23:07:53 2024
</desc>
 <defs/>
 <polygon fill="#ffffff" points="0,0 733,0 733,463 0,463"/>
 <g>
  <polygon fill="#ffffff" points="0,463 733,463 733,0 0,0" shape-rendering="crispEdges"/>
  <clipPath id="cp00733463">
   <polygon points="0,463 733,463 733,0 0,0"/>
  </clipPath>
  <g clip-path="url(#cp00733463)">
   <polygon fill="#ffffff" points="95.411,407.815 504.908,407.815 504.908,34.7473 95.411,34.7473" shape-rendering="crispEdges"/>
   <polyline fill="none" points="169.865,407.815 169.865,403.719" stroke="#262626" stroke-linecap="butt" stroke-linejoin="miter" stroke-width="1.25"/>
   <polyline fill="none" points="262.933,407.815 262.933,403.719" stroke="#262626" stroke-linecap="butt" stroke-linejoin="miter" stroke-width="1.25"/>
   <polyline fill="none" points="356,407.815 356,403.719" stroke="#262626" stroke-linecap="butt" stroke-linejoin="miter" stroke-width="1.25"/>
   <polyline fill="none" points="449.068,407.815 449.068,403.719" stroke="#262626" stroke-linecap="butt" stroke-linejoin="miter" stroke-width="1.25"/>
   <g font-family="'Latin Modern Roman'" font-size="22" font-style="normal" font-weight="normal" transform="translate(147.865,440.318) rotate(-0,22,-16)" xml:space="preserve">
    <text fill="rgb(38,38,38)" x="0 11 22 33 " y="-0">2015</text>
   </g>
   <g font-family="'Latin Modern Roman'" font-size="22" font-style="normal" font-weight="normal" transform="translate(240.932,440.318) rotate(-0,22,-16)" xml:space="preserve">
    <text fill="rgb(38,38,38)" x="0 11 22 33 " y="-0">2020</text>
   </g>
   <g font-family="'Latin Modern Roman'" font-size="22" font-style="normal" font-weight="normal" transform="translate(334,440.318) rotate(-0,22,-16)" xml:space="preserve">
    <text fill="rgb(38,38,38)" x="0 11 22 33 " y="-0">2025</text>
   </g>
   <g font-family="'Latin Modern Roman'" font-size="22" font-style="normal" font-weight="normal" transform="translate(427.067,440.318) rotate(-0,22,-16)" xml:space="preserve">
    <text fill="rgb(38,38,38)" x="0 11 22 33 " y="-0">2030</text>
   </g>
   <polyline fill="none" points="95.411,407.815 99.5102,407.815" stroke="#262626" stroke-linecap="butt" stroke-linejoin="miter" stroke-width="1.25"/>
   <polyline fill="none" points="95.411,333.202 99.5102,333.202" stroke="#262626" stroke-linecap="butt" stroke-linejoin="miter" stroke-width="1.25"/>
   <polyline fill="none" points="95.411,258.588 99.5102,258.588" stroke="#262626" stroke-linecap="butt" stroke-linejoin="miter" stroke-width="1.25"/>
   <polyline fill="none" points="95.411,183.974 99.5102,183.974" stroke="#262626" stroke-linecap="butt" stroke-linejoin="miter" stroke-width="1.25"/>
   <polyline fill="none" points="95.411,109.361 99.5102,109.361" stroke="#262626" stroke-linecap="butt" stroke-linejoin="miter" stroke-width="1.25"/>
   <polyline fill="none" points="95.411,34.7473 99.5102,34.7473" stroke="#262626" stroke-linecap="butt" stroke-linejoin="miter" stroke-width="1.25"/>
   <g font-family="'Latin Modern Roman'" font-size="22" font-style="normal" font-weight="normal" transform="translate(73.3974,415.815) rotate(-0,11,-8)" xml:space="preserve">
    <text fill="rgb(38,38,38)" x="0 " y="-0">0</text>
   </g>
   <g font-family="'Latin Modern Roman'" font-size="22" font-style="normal" font-weight="normal" transform="translate(73.3974,341.202) rotate(-0,11,-8)" xml:space="preserve">
    <text fill="rgb(38,38,38)" x="0 " y="-0">2</text>
   </g>
   <g font-family="'Latin Modern Roman'" font-size="22" font-style="normal" font-weight="normal" transform="translate(73.3974,266.588) rotate(-0,11,-8)" xml:space="preserve">
    <text fill="rgb(38,38,38)" x="0 " y="-0">4</text>
   </g>
   <g font-family="'Latin Modern Roman'" font-size="22" font-style="normal" font-weight="normal" transform="translate(73.3974,191.974) rotate(-0,11,-8)" xml:space="preserve">
    <text fill="rgb(38,38,38)" x="0 " y="-0">6</text>
   </g>
   <g font-family="'Latin Modern Roman'" font-size="22" font-style="normal" font-weight="normal" transform="translate(73.3974,117.361) rotate(-0,11,-8)" xml:space="preserve">
    <text fill="rgb(38,38,38)" x="0 " y="-0">8</text>
   </g>
   <g font-family="'Latin Modern Roman'" font-size="22" font-style="normal" font-weight="normal" transform="translate(62.3974,42.7473) rotate(-0,22,-8)" xml:space="preserve">
    <text fill="rgb(38,38,38)" x="0 11 " y="-0">10</text>
   </g>
   <polyline fill="none" points="95.411,407.815 504.908,407.815" stroke="#262626" stroke-dasharray="16,0" stroke-linecap="square" stroke-linejoin="miter" stroke-width="1.25"/>
   <polyline fill="none" points="95.411,407.815 95.411,34.7473" stroke="#262626" stroke-dasharray="16,0" stroke-linecap="square" stroke-linejoin="miter" stroke-width="1.25"/>
   <g font-family="'Latin Modern Roman'" font-size="24.2" font-style="normal" font-weight="normal" transform="translate(275.159,463.318) rotate(-0,25,-18)" xml:space="preserve">
    <text fill="rgb(38,38,38)" x="0 18 29 41 " y="-0">Year</text>
   </g>
   <g font-family="'Latin Modern Roman'" font-size="24.2" font-style="normal" font-weight="normal" transform="translate(-18.1026,221.281) rotate(-90,75.5,0)" xml:space="preserve">
    <text fill="rgb(38,38,38)" x="0 9 29 42 54 65 74 82 98 110 121 130 142 " y="-5">Impact Factor</text>
   </g>
   <polygon fill="#cca366" fill-opacity="0.95" points="121.471,407.815 121.471,355.436 106.579,355.436 106.579,407.815" shape-rendering="crispEdges"/>
   <polygon fill="#ccca66" fill-opacity="0.95" points="140.085,407.815 140.085,348.162 125.193,348.162 125.193,407.815" shape-rendering="crispEdges"/>
   <polygon fill="#9fcc66" fill-opacity="0.95" points="158.697,407.815 158.697,348.05 143.807,348.05 143.807,407.815" shape-rendering="crispEdges"/>
   <polygon fill="#70cc66" fill-opacity="0.95" points="177.311,407.815 177.311,341.409 162.421,341.409 162.421,407.815" shape-rendering="crispEdges"/>
   <polygon fill="#66cc89" fill-opacity="0.95" points="195.925,407.815 195.925,342.416 181.033,342.416 181.033,407.815" shape-rendering="crispEdges"/>
   <polygon fill="#66ccb8" fill-opacity="0.95" points="214.539,407.815 214.539,332.791 199.647,332.791 199.647,407.815" shape-rendering="crispEdges"/>
   <polygon fill="#66b8cc" fill-opacity="0.95" points="233.153,407.815 233.153,328.725 218.261,328.725 218.261,407.815" shape-rendering="crispEdges"/>
   <polygon fill="#6689cc" fill-opacity="0.95" points="251.765,407.815 251.765,315.929 236.875,315.929 236.875,407.815" shape-rendering="crispEdges"/>
   <polygon fill="#7066cc" fill-opacity="0.95" points="270.379,407.815 270.379,288.583 255.486,288.583 255.486,407.815" shape-rendering="crispEdges"/>
   <polygon fill="#9f66cc" fill-opacity="0.95" points="288.993,407.815 288.993,264.52 274.1,264.52 274.1,407.815" shape-rendering="crispEdges"/>
   <polygon fill="#cc66ca" fill-opacity="0.95" points="307.607,407.815 307.607,266.049 292.715,266.049 292.715,407.815" shape-rendering="crispEdges"/>
   <polygon fill="#cc66a3" fill-opacity="0.95" points="326.218,407.815 326.218,258.588 311.329,258.588 311.329,407.815" shape-rendering="crispEdges"/>
   <polyline fill="none" points="114.025,355.436 132.639,348.162 151.253,348.05 169.865,341.409 188.479,342.416 207.093,332.791 225.707,328.725 244.318,315.929 262.933,288.583 281.547,264.52 300.161,266.049 318.775,258.588" stroke="#ff0000" stroke-linecap="butt" stroke-linejoin="round" stroke-width="2"/>
   <polyline fill="none" points="337.386,253.69 356,244.121 374.615,234.552 393.229,224.983 411.84,215.414 430.454,205.845 449.068,196.277 467.682,186.708 486.296,177.139 504.908,167.57" stroke="#0071bc" stroke-linecap="butt" stroke-linejoin="round" stroke-width="2"/>
   <polyline fill="none" points="337.386,229.328 356,208.516 374.615,186.097 393.229,162.071 411.84,136.44 430.454,109.202 449.068,80.3581 467.682,49.9077 476.702,34.3742" stroke="#d85218" stroke-linecap="butt" stroke-linejoin="round" stroke-width="2"/>
   <polyline fill="none" points="337.386,240.94 356,230.845 374.615,222.972 393.229,217.831 411.84,215.932 430.454,217.786 449.068,223.903 467.682,234.793 486.296,250.968 504.908,272.937" stroke="#ecb01f" stroke-linecap="butt" stroke-linejoin="round" stroke-width="2"/>
  </g>
  <clipPath id="cp00733463">
   <polygon points="0,463 733,463 733,0 0,0"/>
  </clipPath>
  <g clip-path="url(#cp00733463)">
   <polygon fill="#ffffff" points="512.911,120.168 725.925,120.168 725.925,34.7473 512.911,34.7473" shape-rendering="crispEdges"/>
   <polyline fill="none" points="512.911,120.168 725.925,120.168" stroke="#262626" stroke-dasharray="16,0" stroke-linecap="square" stroke-linejoin="miter" stroke-width="1.25"/>
   <polyline fill="none" points="512.911,34.7473 725.925,34.7473" stroke="#262626" stroke-dasharray="16,0" stroke-linecap="square" stroke-linejoin="miter" stroke-width="1.25"/>
   <polyline fill="none" points="512.911,120.168 512.911,34.7473" stroke="#262626" stroke-dasharray="16,0" stroke-linecap="square" stroke-linejoin="miter" stroke-width="1.25"/>
   <polyline fill="none" points="725.925,120.168 725.925,34.7473" stroke="#262626" stroke-dasharray="16,0" stroke-linecap="square" stroke-linejoin="miter" stroke-width="1.25"/>
   <polygon fill="#66c8cc" points="536.922,49.9539 536.922,38.749 516.913,38.749 516.913,49.9539" shape-rendering="crispEdges"/>
   <g font-family="'Latin Modern Roman'" font-size="12" font-style="normal" font-weight="normal" transform="translate(540.923,49.3515) rotate(-0,-0,-5)" xml:space="preserve">
    <text fill="rgb(0,0,0)" x="0 4 12 16 22 28 31 38 43 " y="-0">IF values</text>
   </g>
   <polyline fill="none" points="516.913,59.5581 536.922,59.5581" stroke="#ff0000" stroke-linecap="butt" stroke-linejoin="round" stroke-width="2"/>
   <g font-family="'Latin Modern Roman'" font-size="12" font-style="normal" font-weight="normal" transform="translate(540.923,64.5581) rotate(-0,-0,-5)" xml:space="preserve">
    <text fill="rgb(0,0,0)" x="0 4 12 16 22 28 31 38 43 " y="-0">IF values</text>
   </g>
   <polyline fill="none" points="516.913,75.6624 536.922,75.6624" stroke="#0071bc" stroke-linecap="butt" stroke-linejoin="round" stroke-width="2"/>
   <g font-family="'Latin Modern Roman'" font-size="12" font-style="normal" font-weight="normal" transform="translate(540.923,82.1623) rotate(-0,-0,-6.5)" xml:space="preserve">
    <text fill="rgb(0,0,0)" x="0 8 13 18 25 28 33 38 43 50 54 58 66 70 76 82 85 92 97 102 106 113 118 121 128 134 138 145 150 156 161 166 171 175 " y="-3">Predicted IF values using degree 1</text>
   </g>
   <polyline fill="none" points="516.913,92.6641 536.922,92.6641" stroke="#d85218" stroke-linecap="butt" stroke-linejoin="round" stroke-width="2"/>
   <g font-family="'Latin Modern Roman'" font-size="12" font-style="normal" font-weight="normal" transform="translate(540.923,99.1641) rotate(-0,-0,-6.5)" xml:space="preserve">
    <text fill="rgb(0,0,0)" x="0 8 13 18 25 28 33 38 43 50 54 58 66 70 76 82 85 92 97 102 106 113 118 121 128 134 138 145 150 156 161 166 171 175 " y="-3">Predicted IF values using degree 2</text>
   </g>
   <polyline fill="none" points="516.913,109.666 536.922,109.666" stroke="#ecb01f" stroke-linecap="butt" stroke-linejoin="round" stroke-width="2"/>
   <g font-family="'Latin Modern Roman'" font-size="12" font-style="normal" font-weight="normal" transform="translate(540.923,116.166) rotate(-0,-0,-6.5)" xml:space="preserve">
    <text fill="rgb(0,0,0)" x="0 8 13 18 25 28 33 38 43 50 54 58 66 70 76 82 85 92 97 102 106 113 118 121 128 134 138 145 150 156 161 166 171 175 " y="-3">Predicted IF values using degree 3</text>
   </g>
  </g>
 </g>
</svg>
